<svg version="1.1" xmlns="http://www.w3.org/2000/svg" viewBox="0 0 1447 544.5" width="1447" height="544.5">
  <!-- svg-source:excalidraw -->
  
  <defs>
    <style>
      @font-face {
        font-family: "Virgil";
        src: url("https://excalidraw.com/Virgil.woff2");
      }
      @font-face {
        font-family: "Cascadia";
        src: url("https://excalidraw.com/Cascadia.woff2");
      }
    </style>
  </defs>
  <g stroke-opacity="0.6" fill-opacity="0.6" stroke-linecap="round" transform="translate(1035.5 349.5) rotate(0 63.5 54.5)"><path d="M0 0 C0 0, 0 0, 0 0 M0 0 C0 0, 0 0, 0 0 M-0.08 6.56 C1.9 4.3, 2.28 2.64, 5.59 0.04 M0 6.16 C1.21 4.6, 3.51 2.45, 5.06 0.54 M1.46 10.55 C3.64 10.2, 6.12 6.32, 11.8 -1.43 M-0.08 12.59 C4.5 7.24, 8.4 3.82, 9.98 -0.73 M1.69 16.85 C3.59 12.73, 8.57 9.19, 16.68 -0.43 M0.47 17.98 C3.75 12.37, 9.08 7.66, 14.63 0.95 M1.94 22.58 C4.74 18.36, 10.41 14.02, 20.84 0.14 M0.48 24.52 C4.68 19.72, 10.18 13.9, 21.33 -0.29 M-0.57 31.46 C3.51 22.12, 9.17 18.35, 26.14 0.63 M0.75 31.21 C9.28 18.95, 18.93 6.56, 26.16 -0.28 M-0.31 35.45 C12.3 21.92, 25.5 9.78, 33.58 0.79 M-0.24 36.1 C5.59 28.2, 14.05 20.45, 31.54 0.79 M0.04 41.6 C5.93 33.96, 15.31 26.15, 35.41 -1.7 M0.06 43.23 C8.51 33.28, 17.24 22.9, 37.35 0.83 M0.68 47.1 C7.22 40.39, 17.1 29.98, 41.53 -0.39 M0.77 49.51 C10.73 35.65, 20.37 24.03, 42.49 0.36 M-1.5 54.95 C11.92 43.66, 20.78 30.7, 47.37 -1.15 M0.57 53.93 C13.47 39.52, 26.64 24.47, 48.17 1.12 M-1.12 60.81 C16.66 41.47, 38.37 20.34, 52.23 0.69 M0.93 60.23 C19.25 40.78, 36.87 18.64, 53.54 0.59 M1.44 68.62 C15.94 49.33, 32.11 29.21, 59.2 -0.77 M-0.88 68.11 C20.83 41.62, 44.48 15.05, 58.92 0.59 M-0.79 73.76 C21.95 47.8, 40.83 23.65, 65.52 0.83 M0.68 72.13 C16.91 54.43, 31.67 35.16, 63.44 -0.2 M1.76 78.15 C17.69 60.82, 35.78 37.65, 70.42 -0.93 M-0.11 78.47 C16.79 62.66, 31.23 44.85, 68.26 0.39 M0.94 85.87 C20.55 60.64, 39.14 39.14, 73.56 1.52 M0.79 84.25 C17.68 64.93, 33.43 47.54, 74.25 0.49 M-1.28 90.03 C15.65 74.1, 31.77 53.42, 78.84 0.71 M0.4 92.12 C22.38 65.31, 44.82 39.3, 79.17 0.84 M0.97 96.44 C34.38 58.91, 65.88 23.89, 84.82 0.93 M-0.29 97.53 C19.67 74.71, 38.8 53.95, 85.38 -0.71 M0.54 102.68 C23.69 79.34, 47.91 50.76, 88.57 1.16 M0.19 103.57 C25.12 74.49, 48.5 44.76, 90.99 -0.59 M1.14 108.5 C20.61 82.35, 44.03 56.92, 96.07 -2.09 M0.88 109.05 C32.83 70.71, 66.5 31.45, 95.59 -1 M4.99 109.16 C38.54 73.05, 71.4 31.72, 102.06 0.12 M5.41 109.47 C34.8 75.04, 64.44 40.72, 101.4 0.72 M12.17 108.17 C41.78 77.35, 70.5 43.53, 104.43 0.01 M10.63 109.49 C31.12 86.44, 49.47 62.81, 106.98 0.58 M16.91 109.28 C43.92 78.28, 68.91 47.08, 112.07 -0.01 M16.26 108.64 C49.7 72.54, 82.26 34.56, 110.42 0.55 M20.72 109.42 C42.74 81.91, 65.45 58.69, 114.62 0.22 M21.27 109.85 C51.08 75.37, 79.38 42.9, 116.34 -0.12 M28.23 109.56 C54.07 80.05, 79 49.66, 121.64 1.83 M27.08 110.1 C55 76.98, 84.26 43.89, 122.41 -0.15 M33.61 109.57 C65.51 68.3, 102.61 25.21, 125.7 1.96 M33.28 108.92 C59.3 76.72, 87.24 45.93, 127.78 0.67 M36.41 111.16 C73.31 70.41, 105.22 31.29, 126.91 7.45 M36.78 108.99 C71.04 72.74, 102.06 35.93, 126.85 6.75 M43.96 108.65 C62.75 85.29, 83.37 62.19, 128.53 11.65 M43.51 108.67 C67.7 81.16, 93.61 52.52, 126.26 13.2 M47.23 107.94 C71.17 81.01, 94.97 53.5, 127.58 19.31 M47.62 108.61 C72.03 82.83, 96.35 54.46, 126.78 18.48 M55.2 109.34 C72.71 86.33, 90.02 64.06, 127.97 23.52 M53.14 108.25 C69.74 91.16, 83.22 75.31, 127.77 24.97 M58.78 110.46 C84.1 81.82, 106.38 55.58, 126.23 29.26 M59.19 108.42 C82.38 82.98, 105.41 56.77, 126.2 30.19 M64.45 109.8 C87.48 81.67, 111.07 53.14, 126.65 36.55 M63.02 110.67 C87.5 81.18, 113.44 53.52, 127.12 35.71 M69.47 109.94 C85.14 93.45, 100.84 75.96, 128.48 43.61 M68.44 110.02 C85.36 91.91, 99.77 74.53, 126.15 41.92 M73.06 108.6 C91.86 89.84, 108.39 69.39, 127.57 50.42 M74.34 109.87 C91.87 89.7, 110.29 68.13, 126.48 49.33 M78.03 110.3 C94.09 94.58, 106.59 82.49, 128.31 53.65 M79.67 109.19 C95.23 90.7, 108.82 73.87, 128.08 55.15 M86.76 109.25 C97.8 92.55, 112.66 76.91, 125.33 62.24 M84.65 109.19 C96.29 96.66, 109.12 83, 126.7 60.61 M91.48 108.16 C105.76 93.84, 118.92 79.04, 126.66 68.56 M90.49 109.83 C103.75 95.25, 114.87 79.83, 126.4 67.75 M94.24 109.2 C105.42 98.72, 118.8 85.66, 128.86 71.54 M96.52 110.4 C105 96.8, 115.83 84.71, 127.94 74.25 M101.18 108.8 C106.58 103.28, 115.99 95.31, 126.78 80.24 M101.9 110.04 C106.42 102.98, 111.89 96.04, 127.89 78.75 M106.49 108.6 C111.15 103.59, 119.3 94.72, 125.39 84.81 M106.82 110.39 C114.52 102.14, 121.61 91.94, 127.74 85.38 M110.76 110.22 C115.79 106.03, 118.81 102.35, 125.57 92.03 M112.2 110.05 C117 103.47, 122.39 95.71, 127.01 91.1 M116.84 110.11 C118.43 107.28, 121.21 103.81, 127.19 96.66 M116.82 109.28 C120.32 106.15, 121.93 102.64, 127.57 96.68 M123.08 109.8 C124.15 106.95, 125.44 105.4, 127.46 103.77 M122.67 108.8 C124.28 107.53, 125.42 105.19, 126.87 104.1" stroke="#fab005" stroke-width="0.5" fill="none"></path><path d="M-1.27 1.36 C46.16 2.21, 94.64 0.71, 126.57 0.92 M0.01 -0.7 C27.67 0.26, 57.48 -0.03, 127.45 0.2 M128.31 1.56 C127.32 35.21, 126.76 66.27, 128.42 110.3 M127.86 0.14 C127.03 23.91, 127.93 47.06, 126.91 108.09 M125.72 107.68 C80.18 111.26, 33.05 110.4, 1.9 109.31 M126.52 108.79 C78.12 108.76, 29.88 109.04, 0.06 108.97 M0.95 109.66 C0.07 85.88, -0.69 59.49, -1.07 -0.72 M-0.54 109.75 C-0.7 75.67, -0.63 40.92, 0.12 0.4" stroke="#000000" stroke-width="1" fill="none"></path></g><g stroke-opacity="0.6" fill-opacity="0.6" stroke-linecap="round" transform="translate(1031.5 221.5) rotate(0 63.5 58)"><path d="M0 0 C0 0, 0 0, 0 0 M0 0 C0 0, 0 0, 0 0 M-0.98 6.02 C0.65 5.5, 2.84 3.25, 5.78 -0.16 M-0.42 6.58 C1.17 4.96, 3 2.74, 4.64 0.68 M0.86 10.96 C4.6 7.62, 8.43 2.43, 11.77 0.92 M-0.57 12.56 C3.32 6.84, 7.77 3.49, 11.06 -0.51 M-1.86 18.06 C5.29 13.5, 12.97 3.88, 14.89 -0.17 M-0.5 18.4 C3.72 12.09, 9.55 7.35, 14.71 -0.54 M1.51 22.2 C7.14 18.04, 13.6 9.43, 21.54 -0.77 M0.37 23.31 C7.93 14.15, 16.49 6.16, 20.91 0.79 M-0.43 28.8 C10.68 19.9, 17.44 10.56, 24.35 -1.56 M0.18 31.29 C6.13 24.51, 11.33 18.91, 25.79 0.32 M-1.4 38.22 C5.23 27.63, 14 19.39, 32.31 -1.68 M0.19 36.02 C12.67 22.11, 24.93 6.91, 30.99 -0.88 M1.93 40.6 C12.87 27.64, 27.34 10.62, 34.96 0.4 M-0.84 41.79 C10.89 31.16, 21.8 18.27, 36.92 0.96 M1.03 47.01 C12.7 33.74, 30.04 13.19, 40.68 1.77 M-0.25 48.38 C9.91 36.63, 23.07 23.64, 42.43 -1.11 M1.27 53.06 C10.73 45.03, 18.21 32.61, 48.66 1.92 M-0.41 54.3 C13.27 39.26, 25.84 24.61, 48.03 -0.23 M1.81 61.77 C18.74 39.46, 39 14.73, 51.22 1.63 M0.44 61.41 C19.14 37.91, 41.26 13.56, 53.56 0.83 M1.27 67.23 C17.17 48.91, 33.06 32.06, 57.71 1.87 M-0.73 68.17 C13.4 51.93, 25.52 36.94, 57.4 0.26 M0.94 73.66 C25.1 44.91, 46.01 20.15, 64.86 -1.37 M0.66 72.51 C15.03 55.23, 31.39 36.65, 64.1 -0.22 M-0.1 78.6 C14.92 62.15, 31.17 45.37, 68.67 1.84 M-0.66 78.62 C20.29 54.86, 42.13 29.72, 69.64 1.14 M0.75 84.49 C22.36 58.98, 44.44 35.41, 74.8 -1.8 M1.16 84.25 C17.57 65.25, 36.27 43.68, 75.06 -1.24 M1.48 89.58 C22.94 65.25, 45.88 35.4, 78.41 2.1 M0.31 91.3 C19.33 70.32, 37.65 49.38, 79.71 0.24 M1.2 99.53 C24.7 68.17, 52.32 37.27, 86.58 -1.56 M0.36 97.1 C24.9 67.42, 52.28 36.35, 84.85 -1.05 M-0.72 102.53 C21.33 75.28, 46.48 48.68, 90.13 1.59 M0.69 103.25 C35.72 65.61, 69.21 25.41, 90.92 0.57 M-1.47 108.47 C23.13 83.47, 45.76 56.95, 94.05 -1.85 M-1 110.43 C30.26 76.46, 58.09 44.2, 95.18 -0.33 M-1.1 116.5 C26.13 88.49, 47.77 60.54, 101.32 1.95 M0.32 115.68 C33.61 78.47, 64.16 41.99, 100.91 0.28 M3.98 118.95 C29.78 84.15, 61.34 50.13, 107.35 0.82 M2.82 118 C39.43 78.58, 74.34 36.87, 107.12 0.42 M10.13 118.17 C29.8 91.53, 53.25 66.57, 111.8 -0.48 M8.27 118.89 C31.22 91.74, 55.52 63.54, 111.69 0.69 M14.35 117.5 C53.75 77.61, 89.23 31.82, 116.32 -0.64 M13.2 118.97 C48.22 78.18, 82.83 39.24, 116.43 -0.42 M17.93 118 C41.77 94.06, 63.68 68.08, 123.7 1.3 M19.84 118.44 C50.93 80.88, 84.52 43.36, 121.57 0.26 M23.65 120.44 C63.97 75.1, 101.15 31.81, 125.03 1.12 M24.71 118.73 C51.47 88.05, 79.7 56.8, 126.18 -0.56 M30.21 120.11 C56.29 86.72, 83.81 56.01, 128.19 7.04 M30.28 119.01 C49.05 94.67, 70.34 69.54, 128 6.65 M36.06 117.73 C56.5 91.53, 82.65 63.55, 125.44 12.49 M34.17 118.79 C53.83 94.33, 74.5 71.83, 126.32 12.78 M41.81 118.29 C68.34 89.46, 92.51 55.77, 128.05 17.12 M40.82 118.44 C72.3 82.39, 101.76 47.14, 127.99 18.66 M46.08 117.99 C77.42 82.71, 108.89 48.15, 127.44 23.62 M44.71 117.8 C62.91 97.64, 80.77 76.65, 127.79 23.65 M51.9 119.04 C64.93 98.65, 82.98 81.57, 128.91 29.35 M50.03 118.7 C79.61 86.14, 109.15 51.98, 127.51 30.93 M54.54 120.58 C85.19 88.06, 112.05 55.48, 126.76 37.44 M55.84 119.57 C69.48 102.49, 83.8 86.44, 126.38 36.31 M59.94 117.52 C83.13 90.68, 107.82 65.65, 127.47 43.97 M61.81 117.95 C83.94 91.22, 107.15 64.66, 127.58 43.05 M64.55 119.48 C85.19 99.52, 99.84 78.19, 127.42 49.54 M67.38 119.08 C79.98 102.73, 93.33 87.44, 127.22 49.17 M73.71 117.59 C89.51 96.78, 105.38 79.49, 128.76 54.19 M71.44 118.47 C92.68 94.83, 113.11 69.83, 127.59 54.03 M77.55 119.42 C85.37 108.65, 99.21 94.78, 125.12 60.98 M77.52 118.45 C88.26 104.41, 101.03 90.63, 126.13 61.58 M81.31 119.8 C98.02 99.48, 113.11 83.31, 128.79 67.15 M83.51 118.73 C97.94 99.97, 112.61 84.14, 127.94 67.26 M89.29 119.77 C96.83 108.53, 102.57 100.21, 125.83 75.24 M86.78 118.96 C101.63 102.89, 115.45 87.79, 126.24 72.76 M95.15 117.38 C100.68 106.74, 110.65 97.86, 125.86 80.68 M93.96 117.32 C105.81 105.26, 117.84 91.48, 127.39 79.32 M97.84 118.61 C107.13 108.99, 115.57 98.14, 125.86 86.74 M98.03 119.06 C107.04 107.98, 117.77 98.1, 128.07 86.35 M103.95 116.24 C114.05 106.49, 120.14 99.58, 127.94 92.05 M104.08 119.03 C112.15 108.58, 120.35 100.81, 126.34 92.68 M107.58 116.72 C111.15 114.95, 116.44 110.76, 126.49 97.83 M108.47 118.32 C114.75 112.26, 119.88 105.8, 128.11 97.4 M112.08 119.77 C115.78 117.49, 121.43 114.3, 127.29 102.96 M113.85 119.52 C117.71 114.15, 121.7 109.73, 127.55 104.7 M120.46 117.98 C120 116.39, 123.35 114.22, 127.82 109.18 M119.62 119.07 C121.93 116.18, 124.05 114.18, 127.21 110.03" stroke="#12b886" stroke-width="0.5" fill="none"></path><path d="M0.6 1.49 C36.93 -2.17, 68.89 0.13, 125.59 1.61 M0.46 -0.77 C35.03 -0.43, 69.63 -0.42, 126.34 -0.63 M127.4 0.1 C124.61 43.04, 127.24 89.93, 128.04 117.95 M127.65 -0.88 C126.94 37.21, 127.72 75.25, 126.95 116.76 M125.18 117.39 C76.43 116.34, 28.05 114.57, 0.09 117.98 M127.16 116.85 C90.69 117.16, 51.96 117, 0.03 115.82 M-0.06 114.4 C1.42 73.4, 0.84 30.67, 0.9 0.89 M-0.36 116.15 C1.85 80.11, 0.33 45.43, 0.37 0.99" stroke="#000000" stroke-width="1" fill="none"></path></g><g stroke-opacity="0.6" fill-opacity="0.6" stroke-linecap="round" transform="translate(452.5 230.5) rotate(0 91 79.5)"><path d="M0 0 C0 0, 0 0, 0 0 M0 0 C0 0, 0 0, 0 0 M-0.48 5.67 C1.31 4.11, 2.04 2.71, 5.75 0.54 M-0.34 6.07 C1.66 4.34, 3.22 2.48, 5.28 0.62 M0.7 13.02 C3.05 9.78, 4.22 7.16, 10.28 1.29 M0.72 11.98 C2.8 8.78, 4.91 6.23, 10.01 -0.25 M1.11 19.71 C3.96 10.12, 11.01 5.01, 17.1 2.15 M-0.22 18.97 C3.95 14.1, 6.85 9.84, 14.63 0.92 M-0.2 23.67 C3.86 19.36, 9.28 12.99, 21.7 1.6 M1.08 24.05 C4.75 18.82, 8.92 12.94, 20.48 0.14 M0.92 31.35 C9.29 19.42, 16.5 11.21, 26.12 -0.29 M-0.95 30.93 C9.39 20.36, 19.42 10.56, 26.43 1.04 M-1.9 35.19 C11.73 21.92, 25.26 7.43, 30.67 -0.15 M0.65 36.81 C7.86 29.12, 13.51 20.55, 31.86 -0.08 M1.5 41.27 C7.99 35.21, 14.92 22.97, 37.42 0.16 M0.12 43 C9.14 30.78, 18.47 21.01, 37.86 0.18 M0.75 48.72 C16.63 31.55, 29.61 10.31, 44.39 0.67 M-0.47 49.68 C8.76 38.12, 17.64 27.05, 43.06 0.76 M-1.62 53.53 C17.22 36.51, 32.74 16.45, 49.13 -1.55 M-0.03 55.03 C14.98 36.12, 29.88 19.94, 46.85 0.52 M1.49 59.74 C13.61 48.5, 25.71 30.69, 54.86 -1.3 M0.85 61.71 C15.68 43.04, 32.12 23.93, 53.32 0.75 M-0.84 67.26 C13.51 53.05, 25.85 37.89, 58.09 1.88 M-0.95 68 C21.64 41.98, 43.13 18.73, 58.46 -0.44 M1.4 71.27 C26.17 46.24, 49.17 19.18, 62.74 -1.14 M-0.47 72.53 C22.14 49.13, 42.31 23.21, 64.03 0.33 M-1.95 77.63 C13.64 62.53, 28.21 45.61, 67.8 2.04 M-0.08 78.95 C17.13 59.42, 31.92 40.23, 68.89 0.16 M0.24 86.67 C13.89 67.09, 29.73 49.61, 73.39 0.42 M-0.33 85.12 C24.99 57.39, 49.92 26.99, 74.75 0.27 M0.01 92.41 C16.64 73.5, 32.66 51.41, 80.46 -1.17 M-0.63 91.54 C18.42 69.97, 36.8 49.43, 79.53 0.5 M-0.2 98.35 C30.39 63.05, 63.93 24.89, 84.86 0.94 M-0.12 98.55 C18.53 76.38, 37.56 52.39, 85.17 -0.32 M-0.66 104.91 C25.23 75.45, 47.83 47.04, 88.98 0.47 M0.96 103 C22.73 76.46, 46.61 49.86, 90.91 0.13 M-1.45 108.77 C30.48 73.95, 56.8 41.49, 95.88 0.28 M-0.15 108.97 C26.73 80.11, 52.83 52.32, 95.15 0.03 M-0.98 114.75 C30.05 80.37, 60.58 49.57, 100.91 -0.49 M0.43 114.92 C29.11 81.8, 57.09 49.94, 100.72 -0.07 M-0.35 122.96 C32.95 86.47, 63.28 47.19, 105.86 0.65 M0.52 122.15 C25.44 90.41, 52.49 59.97, 106.72 -0.88 M-1.93 128.63 C38.06 85.6, 74.37 39.56, 110.54 0.77 M-0.97 127.98 C32.35 91.15, 64.89 52.91, 111.81 0.12 M1.61 133.51 C23.3 105.01, 49.1 76.52, 118.27 -0.71 M0.58 134.43 C36.26 91.96, 74.15 49.7, 115.38 -0.16 M-1.85 141.28 C46.09 87.1, 91.76 36.32, 122.81 1.42 M0.1 140.95 C35.99 97.36, 73.57 53.02, 122.16 0.28 M1.63 145.34 C48.41 91.75, 95.66 40.21, 127.22 1.52 M-0.07 145.52 C42.54 98.58, 84.54 49.85, 126.78 1.19 M-0.3 152.07 C40.97 109.89, 79.3 64.24, 133.27 -0.96 M-0.72 153.11 C50.78 93.14, 103 32.51, 132.9 -0.62 M-0.95 160.24 C33.95 117.96, 69.75 74.19, 137.52 1.1 M-0.98 159.16 C40.55 113.53, 78.88 68.78, 136.83 0.71 M2.93 162.58 C40.2 118.91, 79.23 75.72, 144.35 -0.81 M3.23 160.76 C34.68 125.41, 66.92 88.37, 142.55 -0.47 M9.16 161.73 C37.68 125.17, 69.99 88.74, 147.45 1.6 M7.05 161.36 C52.8 110.26, 96.47 58.55, 147.94 -0.22 M11.91 162.4 C45.82 126.21, 77.59 86.72, 153.36 -0.04 M14.07 160.72 C61.87 103.89, 112.63 46.47, 154.15 0.33 M19.95 161.86 C45.94 126.42, 78.44 94.9, 159.47 0.92 M17.55 162.26 C61.55 111.66, 105.63 61.75, 159.05 -0.33 M24.99 161.94 C81.14 95.67, 136.86 31.31, 163.53 -0.01 M24.55 161.72 C71.13 107.21, 116.92 52.54, 164.73 -0.92 M28.77 162.02 C79.34 99.3, 134.21 41.73, 169.68 -0.88 M28.36 162.3 C63.93 121.84, 99.05 81.24, 169.25 0.24 M35 161.01 C78.66 109.75, 125.08 55.94, 173.44 -1.86 M35.37 162 C83.6 104.2, 132.81 47.91, 175.86 -0.43 M37.93 160.86 C82.02 115.6, 122.46 65.85, 181.79 1.77 M39.17 161.83 C79.86 116.7, 119.99 69.95, 179.5 -0.07 M45.85 161.49 C81.91 118.44, 119.52 78.91, 182.08 2.84 M45.65 161.87 C78.25 122.44, 113.21 82.67, 182.86 1.97 M48.56 160.8 C96.33 106.85, 147.52 50.41, 183.01 6.5 M50.7 162.43 C89.62 116.34, 126.81 74.46, 184.37 8.54 M54.95 160.1 C107.92 107.43, 154.29 47.79, 182.53 14.05 M56.47 162 C92.79 119.34, 128.25 77.99, 184.65 14.77 M60.76 161.04 C109.61 105.81, 156.48 51.68, 184.48 20.03 M61.17 161.49 C92.2 124.55, 124.79 88.21, 184.2 20.36 M67.97 159.48 C111.75 107.99, 153.95 57.28, 182.21 25.05 M67.05 161.26 C106.8 113.31, 149.92 65.51, 183.45 26.49 M69.59 161.16 C116.32 108.75, 158.16 58.13, 184.42 32.54 M71.5 161.19 C109.98 117.19, 147.79 74.27, 183.67 32.52 M75.54 160.71 C106.02 125.81, 135.37 93.1, 186.03 39.92 M76.92 161.12 C120.31 112.46, 163.01 63.63, 183.56 38.76 M80.26 160.79 C102.26 137.27, 124.04 108.73, 183 46.02 M82.03 161.41 C102.37 137.67, 125.41 113.19, 183.87 45.19 M88.88 159.18 C120.45 122.46, 156.49 79.9, 185.83 50.93 M87.68 161.27 C124.67 118.45, 160.65 76.33, 184.54 50.61 M92.82 159.95 C120.89 130.19, 149.01 94.29, 183.22 55.16 M92.18 161.29 C119.26 131.52, 144.86 102.29, 184.03 57.07 M99.91 160.56 C122.46 131.9, 150.39 100.17, 183.47 63.45 M99.09 161.78 C124.54 130.26, 152.35 99.18, 184.46 63.12 M102.04 162.99 C128.95 130.19, 159.15 97.98, 185.44 68.2 M102.55 161.3 C126.72 132.13, 151.83 105.18, 184.2 68.43 M109.26 160.86 C127.35 139.54, 146.82 118.82, 185.45 76.86 M109.07 161.03 C125.37 141.31, 140.61 123.57, 184.5 74.5 M113.39 162.57 C128.63 143.44, 144.94 127.11, 182.72 79.72 M114.89 161.26 C139.43 134.55, 161.76 104.76, 184.58 79.87 M117.55 163.15 C135.26 142.6, 149.87 124.97, 183.01 85.14 M119.06 162.53 C144.65 133.83, 167.96 105.7, 183.03 86.54 M122.99 159.65 C137.62 144.76, 151.81 129.75, 184.12 95.34 M124.11 162.34 C137.35 147.15, 151.09 130.5, 182.88 93.12 M128.08 162.54 C147.14 141.81, 162.81 126, 182.74 97.82 M130.59 161.86 C145.53 143, 160.53 124.79, 184.25 99.6 M133.68 159.53 C148.12 144.95, 162.54 131.82, 185.38 104.73 M136.27 161.05 C148.08 145.94, 161.42 128.77, 182.92 105.98 M138.86 162.73 C154.02 147.14, 166.37 131.56, 185.88 112.75 M139.4 161.19 C153.17 146.68, 165.23 131.3, 183.5 111.43 M146.97 159.78 C156.71 147.07, 170.02 133.22, 184.96 118.17 M146.59 161.23 C154.61 151.57, 162.14 142.3, 184.73 116.83 M149.26 160.97 C161.79 152.64, 169.88 140.47, 183.75 124.83 M150.05 162.3 C162.94 148, 175.29 132.82, 184.63 123.85 M155.05 162.33 C166.13 151.01, 170.68 144.77, 182.65 131.46 M157.45 162.08 C161.6 154.17, 167.55 147.78, 185.12 129.69 M163.32 160.82 C169.1 155.09, 175.9 145.45, 184.28 135.04 M161.22 161.3 C169.37 154, 176.19 144.15, 184.59 135.76 M168.83 161.39 C173.11 153.46, 178.77 149.39, 182.93 142.72 M166.37 162.14 C171.91 155.82, 175.6 150.48, 185.08 140.87 M173.62 160.31 C175.62 155.28, 180.47 151.94, 184.15 147.02 M171.83 160.76 C174.87 158.28, 176.53 155.85, 183.6 147.71 M177.86 160.45 C179.07 159.08, 181.06 158.09, 183.11 153.86 M177.94 161.25 C179.07 159.57, 180.8 158.03, 183.46 154.16" stroke="#be4bdb" stroke-width="0.5" fill="none"></path><path d="M-0.48 0.92 C62.29 -0.1, 122.19 1.16, 181.06 -1.27 M-0.26 0.06 C66.76 -1, 133.17 -1.25, 181.3 0.01 M183.62 -1.84 C181.86 37.02, 181.05 71.92, 180.86 160.31 M182.24 -0.12 C183.53 60.74, 181.95 120.24, 181.65 159.86 M183.69 160.52 C124.72 158.57, 69.18 158.65, 0.45 157.72 M181.94 159.56 C140.38 160.96, 97.72 161.77, -0.05 158.52 M1.41 159.19 C0.07 114.55, -1.64 71.76, 0.39 0.95 M0.07 158.25 C-1.25 105.72, -0.57 54.14, -0.23 -0.54" stroke="#000000" stroke-width="1" fill="none"></path></g><g stroke-linecap="round"><g stroke-opacity="0.5" fill-opacity="0.5" transform="translate(378.02457322551663 306.65916358874216) rotate(0 26.075125508780786 -1.929301279143914)"><path d="M0.97 -0.47 C9.71 -0.96, 43.38 -2.81, 52.13 -3.39 M0.02 -1.76 C8.61 -2.06, 42.14 -1.89, 51.01 -2.12" stroke="#000000" stroke-width="1" fill="none"></path></g><g stroke-opacity="0.5" fill-opacity="0.5" transform="translate(378.02457322551663 306.65916358874216) rotate(0 26.075125508780786 -1.929301279143914)"><path d="M52.09 -2.82 L36.93 5.89 L39.18 -8.6 L50.31 -3.28" stroke="none" stroke-width="0" fill="#000000" fill-rule="evenodd"></path><path d="M50.43 -2.52 C46.67 1.01, 42.31 1.49, 38.83 5.58 M50.28 -2.58 C47.36 0.07, 44.91 1.43, 37.12 4.63 M38.3 4.81 C36.27 2.16, 37.8 -2.93, 38.03 -8.77 M37.36 4.21 C37.84 0.95, 37.85 -1.05, 37.98 -8.87 M37.16 -8.64 C40.58 -6.81, 45.07 -4.7, 51.94 -3.4 M36.83 -8.65 C41.41 -6.67, 46.8 -4.98, 50.7 -1.38 M51.01 -2.12 C51.01 -2.12, 51.01 -2.12, 51.01 -2.12 M51.01 -2.12 C51.01 -2.12, 51.01 -2.12, 51.01 -2.12" stroke="#000000" stroke-width="1" fill="none"></path></g></g><g stroke-opacity="0.5" fill-opacity="0.5" stroke-linecap="round" transform="translate(432.5 219.5) rotate(0 276 93.5)"><path d="M-1.22 1.11 C161.2 -3.68, 319.48 -3.35, 552.25 0.68 M551.7 0.74 C551.79 44.56, 556.99 80.46, 548.13 183.51 M552.14 188.57 C415.17 183.61, 275.79 184.69, -0.08 186.03 M2.02 190.89 C0.34 110.2, 6.19 38.55, -3.29 -1.57" stroke="#000000" stroke-width="1.5" fill="none" stroke-dasharray="8 9"></path></g><g transform="translate(23 302) rotate(0 175 115.5)"><text x="0" y="15" font-family="Virgil, Segoe UI Emoji" font-size="17.436408977556123px" fill="#000000" text-anchor="start" style="white-space: pre;" direction="ltr">Documents</text><text x="0" y="36" font-family="Virgil, Segoe UI Emoji" font-size="17.436408977556123px" fill="#000000" text-anchor="start" style="white-space: pre;" direction="ltr">[</text><text x="0" y="57" font-family="Virgil, Segoe UI Emoji" font-size="17.436408977556123px" fill="#000000" text-anchor="start" style="white-space: pre;" direction="ltr">    {</text><text x="0" y="78" font-family="Virgil, Segoe UI Emoji" font-size="17.436408977556123px" fill="#000000" text-anchor="start" style="white-space: pre;" direction="ltr">        "article": "Cherche is a tool.", </text><text x="0" y="99" font-family="Virgil, Segoe UI Emoji" font-size="17.436408977556123px" fill="#000000" text-anchor="start" style="white-space: pre;" direction="ltr">        "title": "Cherche" </text><text x="0" y="120" font-family="Virgil, Segoe UI Emoji" font-size="17.436408977556123px" fill="#000000" text-anchor="start" style="white-space: pre;" direction="ltr">    },</text><text x="0" y="141" font-family="Virgil, Segoe UI Emoji" font-size="17.436408977556123px" fill="#000000" text-anchor="start" style="white-space: pre;" direction="ltr">    {</text><text x="0" y="162" font-family="Virgil, Segoe UI Emoji" font-size="17.436408977556123px" fill="#000000" text-anchor="start" style="white-space: pre;" direction="ltr">        "article": "Python is a language.", </text><text x="0" y="183" font-family="Virgil, Segoe UI Emoji" font-size="17.436408977556123px" fill="#000000" text-anchor="start" style="white-space: pre;" direction="ltr">        "title": "Python"</text><text x="0" y="204" font-family="Virgil, Segoe UI Emoji" font-size="17.436408977556123px" fill="#000000" text-anchor="start" style="white-space: pre;" direction="ltr">    }</text><text x="0" y="225" font-family="Virgil, Segoe UI Emoji" font-size="17.436408977556123px" fill="#000000" text-anchor="start" style="white-space: pre;" direction="ltr">]</text></g><g transform="translate(23 205) rotate(0 67 30)"><text x="0" y="14" font-family="Virgil, Segoe UI Emoji" font-size="16px" fill="#000000" text-anchor="start" style="white-space: pre;" direction="ltr">Query</text><text x="0" y="34" font-family="Virgil, Segoe UI Emoji" font-size="16px" fill="#000000" text-anchor="start" style="white-space: pre;" direction="ltr"></text><text x="0" y="54" font-family="Virgil, Segoe UI Emoji" font-size="16px" fill="#000000" text-anchor="start" style="white-space: pre;" direction="ltr">What is Cherche?</text></g><g stroke-opacity="0.3" fill-opacity="0.3" stroke-linecap="round" transform="translate(11 193) rotate(0 88 43.5)"><path d="M0 0 C0 0, 0 0, 0 0 M0 0 C0 0, 0 0, 0 0 M0.23 6.58 C1.11 3.94, 3.03 2, 5.62 -0.35 M-0.19 6.27 C1.49 4.33, 3.87 1.42, 5.06 0.7 M0.21 12.96 C5.34 8.85, 6.97 4.23, 9.66 0.37 M-0.58 12.4 C3.81 7.83, 7.9 4.18, 10.93 -0.21 M-0.12 19.57 C4.17 11.91, 10.12 4.45, 17.12 2.16 M0.22 18.14 C5.06 13.12, 9.25 7.79, 14.68 -0.36 M1.08 23.68 C4.89 17.57, 8.8 13.28, 21.59 0.29 M0.84 23.62 C9.01 14.65, 16.57 5.29, 21.6 -0.22 M1.64 29.15 C7.39 22.83, 12.11 15.72, 27.27 -0.5 M0.38 30.08 C6.5 23.13, 11.4 16.6, 25.49 -0.52 M1.51 37.32 C11.44 24.53, 19.51 13.5, 33.28 -0.42 M0.49 36.37 C6.8 29.59, 12.76 20.75, 32.21 -1.02 M1.71 42.72 C11.69 28.91, 22.72 19.08, 37.06 -1.39 M-0.13 41.72 C6.86 33.63, 15.1 24.66, 37.05 -0.15 M-0.82 48.37 C9.46 36.39, 16.38 28.04, 44.43 0.04 M0.8 48.48 C10.13 37.62, 19.76 25.59, 42.59 -0.59 M0.29 53.72 C18.86 34.74, 32.71 14.99, 49.27 -0.14 M0.33 55.23 C13.02 41.77, 24.24 27.49, 47.96 -0.77 M0.44 61.7 C11.8 46.48, 25.69 31.95, 51.63 1.68 M-0.42 61.31 C12.6 46.03, 25.54 31.39, 52.68 -0.53 M1.57 66.65 C20.03 41.57, 39.82 19.07, 57.34 -0.1 M-1.09 67.9 C24.27 41.66, 47 13.36, 57.97 -0.57 M-1 73.69 C14.45 57.64, 29.09 39.67, 64.18 -1.21 M0.47 72.8 C18.86 52.07, 38.96 30.22, 64.55 -0.1 M0.4 78.08 C25.51 49.33, 47.61 22.22, 69.43 -0.31 M0.86 79.08 C23.55 52.96, 46.52 26.3, 67.98 -0.37 M-0.76 85.08 C21.92 63.28, 41.4 41.9, 76.06 0.02 M0.24 84.25 C18.85 65, 35.31 45.43, 74.44 -0.23 M0.34 90.86 C27.71 59.36, 55.47 27.68, 80.34 0.52 M1.62 88.48 C32.78 54.37, 62.73 20.05, 80.06 0.32 M7.45 88.59 C30.94 66.06, 49.8 40.58, 85.95 0.29 M8.05 87.99 C23.65 70.73, 39.49 51.61, 84.73 0.53 M10.87 88.14 C42.56 52.84, 75.08 20.77, 91.61 -0.02 M12.01 90.09 C34.44 62.15, 58.8 36.96, 89.42 -0.63 M17.47 90.1 C46.81 55.88, 77.81 22.43, 97.21 0.86 M19.06 88.51 C41.67 59.26, 67.48 31.55, 95.98 -0.06 M23.06 88.73 C47.43 61.5, 73.19 34.12, 99.43 -0.01 M23.92 89.64 C43.81 67.48, 63.35 44.02, 100.44 -0.04 M30.46 87.04 C54.72 61.02, 77.57 32.22, 105.87 1.3 M28.23 88.92 C45.12 69.04, 61.02 52.15, 106.88 0.13 M33.21 87.95 C50.66 68.98, 66.9 49.78, 110.69 -1.24 M33.93 89.36 C55.28 63.64, 77.39 39.4, 110.66 0.63 M37.58 89.38 C54.65 69.08, 73.19 48.18, 116.03 0.22 M38.98 87.88 C55.66 69.11, 72.23 51.52, 115.64 0.3 M46.3 87.41 C73.29 58.66, 96.9 29.22, 122.96 -1.18 M44.77 89.83 C61.88 68.48, 78.74 47.6, 122.76 -0.73 M48.64 87.39 C70.36 66.32, 92.17 43.35, 126.4 0.32 M49.87 89.38 C70.87 66.94, 88.49 44.23, 126.6 -0.25 M56.01 87.07 C72.82 70.78, 89.41 49.71, 132.52 -0.98 M55.34 89.99 C84.62 55.03, 115.81 20.6, 132.58 -0.9 M60.15 87.69 C78.15 66.39, 98.45 46.77, 138.45 0.85 M60.61 88.8 C88.8 57.67, 114.67 28.01, 138.26 0.38 M64.69 89.16 C92.51 56.51, 121.25 23.91, 142.32 -1.49 M66.69 89.11 C87.13 64.83, 109.39 38.08, 143.13 0.7 M71.33 89.16 C96.57 59.12, 124.37 28.7, 146.96 -1.39 M72.08 88.81 C92.79 64.31, 113.67 40.77, 147.95 -0.31 M75.4 90.26 C101.07 62.58, 124.26 32.84, 153.99 0.77 M76.01 88.8 C97.55 63.39, 120.37 38.39, 154.56 -0.04 M79.4 87.79 C108.89 56.03, 139.69 20.75, 159.43 0.75 M81.65 90.21 C105.25 60.33, 129.64 32.45, 159.16 -0.49 M87.85 89.23 C113.42 56.22, 141.88 24.22, 163.86 1.57 M86.67 89.03 C115.84 55.74, 144.15 22.95, 164.18 0.16 M90.25 89.59 C124.06 57.3, 153.7 23.04, 168.02 0.69 M91.84 88.88 C117.29 61.31, 142.14 31.93, 169.53 0.02 M98.49 87.27 C124.52 58.41, 150.08 24.72, 174.95 1.02 M98.19 88.11 C127.27 56.41, 155.6 22.43, 174.47 -0.11 M102.5 91.18 C115.98 68.68, 132.65 51.24, 179.63 0.44 M102.32 88.3 C123.56 67.24, 141.6 45.55, 178.9 2.01 M108.4 87.88 C136.39 55.05, 163.51 27.04, 177.74 7.82 M108.23 88.67 C132.48 61.74, 155.62 34.32, 177.83 7.41 M114.09 88.7 C134.12 65.67, 153.72 44.69, 177.23 13.63 M112.6 88.53 C128.17 71.15, 142.33 54.89, 178.64 13.89 M119.39 88.87 C137.7 67.14, 156.88 44.05, 180.55 18.16 M118.62 89.7 C141.83 61.95, 165.47 34.54, 178.99 19.46 M125.66 90.63 C143.16 67.5, 163.14 45.02, 179.59 26.82 M123.33 88.99 C138.32 73.32, 153.76 55.19, 177.41 27.06 M129.94 90.37 C144.59 69.96, 159.86 52.22, 177.1 34.05 M129.36 88.56 C142.76 75.28, 153.98 59.83, 178.49 33.67 M132.55 89.75 C143.51 75.53, 156.65 67.24, 177.64 38.69 M134.32 88.44 C149.59 71, 165.48 51.98, 179.46 39.07 M139.23 86.81 C148.55 77.37, 161.26 65.51, 178.45 43.34 M140.57 88.91 C151.11 76.15, 160.59 63.71, 178.76 44.5 M144.76 87.14 C155.04 76.69, 161.87 68.72, 178.97 50.25 M144.55 88.98 C157.52 73.65, 170.96 57.18, 179.22 49.82 M151.1 86.95 C157.82 80.06, 170 69.35, 176.41 56.43 M150.57 88.78 C158.1 79.01, 165.38 71.15, 177.38 56.02 M155 88.23 C166.06 77.07, 174.88 69.36, 179.24 61.56 M156.14 90.05 C161.27 82.81, 166.58 77.24, 178.62 64.32 M162.11 89.85 C168.25 79.82, 175.98 72.83, 178.1 67.29 M161.79 88.53 C166.67 84.03, 169.84 77.31, 177.76 68.9 M166.63 90.56 C168.72 83.83, 175 81.8, 176.88 76.6 M166.37 88.5 C169.91 85.49, 171.52 83.11, 177.75 75.61 M172.78 88.76 C173.95 85.93, 176.44 83.01, 178 81.64 M172.46 88.75 C174.36 85.7, 176.21 83.59, 178.55 81.11" stroke="#e64980" stroke-width="0.5" fill="none"></path><path d="M-0.44 1.85 C60.08 -3.55, 124.34 -1.27, 174.04 0.06 M177.55 1.11 C174.78 19.46, 175.56 36.18, 176.4 88.33 M174.51 86.84 C127.75 86.07, 83.34 86.04, -0.18 87.64 M1.02 87.01 C-0.36 66.74, 1.65 47.78, 0.7 -0.03" stroke="#000000" stroke-width="1.5" fill="none" stroke-dasharray="8 9"></path></g><g stroke-opacity="0.3" fill-opacity="0.3" stroke-linecap="round" transform="translate(10 293.5) rotate(0 183 120.5)"><path d="M0 0 C0 0, 0 0, 0 0 M0 0 C0 0, 0 0, 0 0 M0.19 5.75 C1.37 4.01, 2.63 3.48, 5.72 0.14 M-0.38 6.77 C1.25 4.8, 2.76 2.17, 4.71 0.13 M-0.19 11.68 C2.65 7.14, 6.98 5.13, 10.91 1.38 M-0.24 12.53 C3.32 8.31, 6.55 4.86, 10.51 -0.49 M-1.46 19.52 C4.61 11.95, 9.86 7.73, 14.82 -1.34 M-0.53 19 C2.56 14.17, 6.05 9.64, 14.81 0.42 M0.71 26 C6.58 15.65, 14.19 8.67, 20.94 -1.83 M-0.25 24.66 C8.96 14.22, 16.16 5.37, 20.35 -0.15 M0.2 31.15 C5.72 23.23, 15.19 14.47, 24.6 -1.64 M-0.8 29.63 C7.09 22.02, 14.05 13.86, 25.84 -0.52 M-0.8 37.33 C9.08 22.24, 22.59 13.35, 32.07 -1.23 M-0.7 36.92 C11.28 23.38, 22.05 11.7, 31.44 0.39 M-0.71 44.36 C8.75 30.85, 17.42 22.55, 36.52 -0.78 M0.81 43.34 C10.4 31.82, 19.16 20.96, 35.88 -0.44 M0.61 48.6 C13.25 34.3, 26.6 15.59, 44.37 -1.32 M0.22 48.37 C10.14 36.69, 20.65 24.63, 42.17 0.41 M-0.43 54.56 C15.48 33.48, 33.95 13.86, 47.22 2.2 M0.82 55.41 C12.89 41.97, 22.93 28.25, 46.75 -0.62 M0.7 61.81 C18.29 42.48, 33.97 20.57, 52.15 -0.28 M-0.19 60.39 C12.69 47.72, 24.44 33.87, 53.25 0.47 M-1.57 68.57 C20.95 39.63, 45.12 16.26, 57.67 0.99 M-0.57 67.03 C13.57 50.67, 27.19 35.33, 57.61 -0.17 M0.18 74.87 C18.53 54.82, 37.3 34.43, 64.04 -1.59 M-0.64 73.73 C13.31 57.54, 26.95 41.91, 63.8 0.29 M1.57 77.65 C18.77 58.7, 35.79 40.51, 69.17 1.94 M-0.81 80.29 C22.11 54.62, 44.83 28.81, 68.97 -0.04 M0.09 86.39 C22.84 60.29, 42.6 39.44, 74.98 -2.06 M-0.51 85.31 C26.68 54.91, 52.03 24.95, 75.22 0.75 M-0.98 90 C18.85 69.94, 41.76 48.97, 79.3 0.09 M0.97 90.7 C28.39 59.34, 58.55 25.14, 78.68 0.97 M1.11 96.42 C25.81 69.82, 51.11 43.55, 86.21 0.21 M-0.48 96.98 C32.94 58.21, 67.84 19.89, 85.3 -0.12 M-0.22 103.76 C32.85 68.15, 65.76 28.25, 89.97 -0.81 M0.68 104.15 C26.91 73.95, 51.72 43.88, 89.94 0.23 M-1.78 111.44 C30.3 74.74, 59.45 39.87, 97.31 -2.2 M0.1 110.46 C29.8 74.8, 62.74 38.52, 96.14 -1.14 M-0.84 115.76 C33.35 77.06, 66.94 38.38, 99.4 -0.36 M0.57 115.72 C35.06 75.69, 70.88 33.97, 101.28 -0.75 M0.72 120.87 C40.17 76.86, 79.29 29.35, 106.15 -2.03 M-0.78 121.89 C35.94 80.58, 73.82 38.04, 106.22 0.05 M-1.86 130.28 C26.29 95.6, 54.04 66.38, 110.13 -1.43 M0.55 128.38 C36.93 84.3, 73.71 42.87, 110.58 -0.3 M-1.09 134.07 C43.58 88.11, 86.09 38.29, 116.26 -0.58 M0.89 134.82 C29.09 100.86, 56.94 68.87, 115.68 -0.3 M-2.04 140 C38.46 97.2, 73.59 58.04, 120.99 1.76 M0.88 139.98 C41.13 94.5, 81.59 47.55, 121.07 -0.59 M-0.64 145.09 C42.8 96.92, 88.3 46.93, 127.45 1.29 M0.47 146.96 C32.61 109.17, 65.98 72.5, 126.98 0.94 M0.2 150.75 C29.8 118.11, 58.94 84.2, 131.29 -0.27 M0.15 151.89 C47.12 98.87, 91.23 47.46, 133.25 0.33 M0.28 157.57 C38.31 116.07, 75.43 72.02, 136.07 -0.27 M-0.03 158.9 C28.61 123.94, 58.63 88.9, 137.02 0.36 M1.31 165.41 C45.91 114.05, 88.54 62.12, 143.95 -0.39 M0.05 163.71 C40.88 117.46, 82.36 70.47, 143.25 0.61 M-1.39 169.22 C45.61 119.55, 89.69 68.47, 148.6 0.5 M0.68 171.14 C55.21 105.43, 112.16 39.84, 147.54 0.83 M0.57 175.43 C57.48 109.41, 114.98 44.21, 155.27 1 M0.41 176.2 C32 138.99, 64.57 101.48, 154.08 0.61 M0.31 184.28 C42.84 139.29, 82.88 91.06, 159.2 0.57 M-0.28 182.75 C36.13 141.84, 71.21 100.78, 158.65 0.67 M-1.53 189.3 C56.8 122.5, 111.27 58.85, 165.43 0.92 M-0.85 190.05 C43.29 138.97, 85.94 87.4, 164.51 -0.92 M1.73 193.43 C55.61 127.19, 114.42 61.85, 167.83 -0.49 M-0.58 195.66 C39.87 150.56, 79.01 107.06, 169.09 0.95 M-0.85 201.78 C51.48 139.89, 107.82 77.72, 174.87 0.5 M-0.23 201.44 C56.25 137.07, 111.88 73.59, 174.54 -0.18 M-0.08 207.7 C46.01 153.84, 93.54 99.02, 179.4 -0.95 M-0.22 207.01 C51.72 146.69, 105.13 86.69, 179.6 0.42 M0.09 212.41 C52.06 153.43, 102.4 98.2, 184.21 1.23 M0.73 213.06 C65.73 139.17, 130.15 65.45, 185.2 0.14 M0.88 219.97 C57.22 154.79, 112.94 90, 190.91 -0.3 M-0.35 219.69 C65.98 146.51, 129.9 70.84, 191.09 0.36 M1.35 225.06 C77.37 135.79, 154.75 47.52, 197.17 -0.97 M0.02 225.96 C51.73 166.41, 102.08 107.81, 196.88 -0.72 M0.36 231.09 C79.7 142.82, 162.05 49.3, 201.41 0.95 M-0.59 231.26 C60.41 162.7, 119.71 94.94, 201.69 -0.18 M-1.06 236.49 C71.76 156.94, 142.91 73.86, 205.82 -0.62 M0.43 237.63 C56.26 171.31, 112.53 107.28, 206.64 -0.45 M-0.01 242.8 C71.69 160.25, 144.12 80.65, 211.7 1.45 M1.27 241.67 C67.22 165.82, 133.23 90.04, 211.41 0.17 M5.78 240.88 C80.39 158.18, 153.7 70.51, 217.2 -0.74 M7.05 241.85 C71.6 166.07, 138.18 89.59, 216.91 0.33 M11.41 243.35 C77.39 166.22, 146.63 88.25, 221.29 -0.91 M12.68 242.6 C87.01 154.48, 163.51 66.77, 223.22 0.73 M18.46 241.97 C91.71 155.71, 167.41 68.32, 227 -0.84 M17.53 242.28 C66.9 185.09, 114.29 129.44, 228.13 -0.19 M23.8 241.16 C104.44 146.84, 189.77 48.95, 234.12 -0.91 M22.21 242.71 C66.43 190.52, 111.71 139.23, 233.34 0.25 M28.44 241.36 C80.2 180.49, 132 119.51, 238.99 0.8 M28.43 242.13 C108.62 147.64, 189.9 54.84, 238.24 -0.17 M33.02 242.95 C82.42 184.59, 133.76 124.48, 244.54 0.2 M32.75 241.61 C87.91 177.99, 142.27 114.3, 243.81 -0.3 M37.64 241.52 C91.64 182.45, 143.44 122.03, 247.89 1.28 M38.42 243 C91.17 180.58, 145.26 119.26, 249.52 0.06 M43.48 241.94 C119.7 154.13, 194.69 65.22, 254.13 0.23 M43.95 241.79 C111.06 163.47, 180.09 85.03, 254.11 -0.55 M48.78 241.71 C115.67 168.99, 180.43 92.6, 260.67 0.49 M48.41 242.29 C100.12 183.87, 149.33 127.04, 258.99 -0.23 M54.25 243.01 C118.72 169.84, 183.57 93.8, 266.08 -1.09 M54.97 241.66 C102.62 187.18, 149.98 132.22, 265.39 -0.72 M58.62 242.59 C125.1 165.02, 190.3 90.38, 271.2 0.82 M58.95 241.84 C110.57 185.97, 161.71 127.95, 269.47 0.37 M64.61 243.14 C120.79 180.7, 174.1 117.95, 276.81 0.6 M64.53 242.56 C108.95 190.97, 151.6 141.14, 276.21 -0.23 M68.99 243.12 C132.68 170.69, 192.63 102.04, 281.95 -0.46 M70.09 242.15 C131.97 172.37, 191.39 103.14, 280.53 0.57 M76.86 242.56 C123.6 184.82, 171.25 130.49, 287.16 0.38 M75.09 241.71 C145.39 164.67, 212.67 86.2, 286.79 -0.45 M80.54 241.33 C164.84 148.15, 250.39 50.65, 290.01 0.01 M80.75 243.14 C147.7 164.67, 213.97 88.22, 291.29 0.61 M85.12 242.03 C141.89 177.34, 200.1 111.5, 296.76 0.79 M85.83 242.07 C141.23 180.27, 194.59 117.75, 297.58 -0.6 M92.77 242.74 C158.32 163.48, 226.2 85.84, 301.09 0.46 M91.46 242.72 C173.72 147.81, 255.71 53.44, 301.78 0.83 M97.7 242.74 C151.21 179.45, 207.46 114.27, 306.9 0.67 M96.91 242.47 C157.85 173.01, 217.02 103.81, 307.87 -0.45 M101.17 243.57 C162.9 170.79, 223.66 100.4, 312.7 -0.37 M101.61 242.44 C161.37 176.76, 220.45 108.66, 313 0.28 M106.39 240.8 C177.3 161.2, 246.67 82.74, 317.65 0.72 M107.98 241.88 C174.54 165.74, 242.86 86.79, 318.61 -0.37 M114.03 241.89 C167.4 179.68, 225.26 113.98, 322.62 -0.49 M112.22 241.82 C168.44 178.79, 224.99 114.63, 322.69 -0.48 M117.13 241.18 C162.4 192.58, 206.39 139.6, 327.92 0.73 M118.28 242.18 C176.32 174.15, 236.36 105.84, 329.56 0.08 M124.51 243.28 C192.69 161.6, 264.06 79.7, 334.39 -0.23 M123.14 242.63 C196.29 156.95, 271.87 70.46, 333.7 0.6 M127.73 240.93 C195.53 167.16, 259.84 92.78, 338.25 -0.41 M129.36 242.54 C195.27 167.74, 260.53 92.63, 339.34 -0.65 M132.95 241.18 C205.46 160.99, 275.57 78.23, 343.41 0.59 M134.49 241.82 C190.41 176.05, 248.61 109.44, 344.26 0.11 M139 243.19 C190.43 184.06, 239.39 128.89, 350.11 1.58 M139.51 242.25 C212.53 157.59, 286.26 74.41, 348.95 0.24 M144.11 242.11 C191.06 186.76, 240.87 131.97, 356.47 -0.19 M145.21 242.75 C197.37 183.04, 250.28 122.74, 354.91 0.33 M148.51 243.95 C198.63 183.08, 250.8 122.19, 360.18 -0.54 M150.13 242.87 C225.4 153.82, 302.72 64.94, 360.2 -0.09 M155.99 243.29 C220.38 166.82, 287.21 91.5, 366.61 -1.44 M154.48 242.62 C201.95 184.91, 249.58 129.82, 365.75 -0.53 M158.81 242.99 C210.66 186.39, 259.03 129.26, 368.43 3.54 M159.9 242.39 C233.2 157.95, 305.85 74.24, 368.41 2.25 M165.39 241 C210.76 189.25, 253.54 140.48, 368.23 9.56 M165.93 242.2 C222.62 175.91, 280.1 109.58, 369.19 8.33 M170.72 242.85 C234.41 168.82, 298.45 94.56, 369.73 13.73 M170.69 242.59 C230.32 176.3, 287.84 109.87, 369.41 15.13 M176.34 241.85 C234.56 172.3, 296.31 104.1, 369.37 19.79 M176.42 241.67 C251.43 156.54, 327.35 68.58, 369.11 21.58 M180.25 243.02 C230.61 185.19, 282.05 127.41, 369.99 25.74 M181.79 243.24 C221.21 194.92, 261.76 149.91, 368.66 26.98 M186 243.18 C240.69 184, 291.37 122.97, 368.03 32.36 M187.29 242.11 C231.52 191.16, 277.89 137.8, 368.74 32.29 M192.37 243.44 C241.85 186.81, 287.9 134.42, 368.01 38.64 M191.9 242.64 C250.34 172.44, 309.98 104.54, 369.17 38.25 M196.1 240.84 C262.96 165.11, 330.49 91.4, 369.05 45.47 M197.14 242.52 C245.77 188.55, 292.61 133.37, 368.52 45.85 M203.36 241.41 C262.05 178.14, 317.14 111.76, 370.16 50.98 M202.23 242.22 C256.5 182.7, 308.74 121.6, 369.15 51.16 M207.28 242.26 C272.15 169.11, 331.76 99.36, 369.02 56.74 M207.99 242.67 C271.37 169.58, 334.18 96.54, 369.17 57.79 M212.52 241.11 C268.23 175.63, 326.64 112.26, 367.56 64.39 M213.63 242.05 C245.85 206.43, 278.4 168.9, 368.88 63.47 M218.79 241.12 C276.83 176.71, 331.54 112.4, 367.77 70.87 M218.99 241.62 C257.06 199, 294.82 155.69, 369.24 69.93 M222.85 240.98 C254.48 205.17, 285.48 172.08, 367.28 75.1 M224.75 242.38 C265.25 196.3, 305.31 148.48, 368.59 76.13 M228.29 243.17 C256.56 211.89, 284.43 179.37, 368.23 80.45 M229.49 242.81 C283 178.93, 339.95 114.99, 369.37 81.77 M234.44 243.41 C264.17 205.85, 296.64 169.21, 369.45 87.56 M235.25 241.81 C267.2 206.1, 300.85 167.72, 369.58 86.78 M238.75 242.92 C270.87 205.8, 302.89 170.13, 368.8 93.52 M240.96 242.14 C280.03 193.96, 321.89 147.68, 368.04 94.1 M243.88 240.56 C291.47 187.44, 339.21 133.19, 368.27 98.84 M246.09 242.64 C293.14 186.93, 341.35 129.6, 369.37 100.12 M252.61 239.94 C294.34 188.44, 340.49 137.88, 369.59 107.52 M251.35 241.58 C297.76 188.13, 345.63 134.12, 368.54 106.75 M255.64 243.86 C285.55 206.14, 316.92 172.71, 369.15 114 M255.48 241.74 C283.72 209.61, 312.83 176.42, 369.16 112.69 M261.28 242.03 C293.71 206.78, 324.9 170.38, 367.71 118.74 M260.29 243.54 C298.02 200.34, 336.53 157.6, 368.54 118.65 M266.61 242.19 C298.81 203.19, 332.93 165.89, 370.31 123.14 M267.2 241.92 C303.85 198.91, 340.64 155.18, 368.87 123.93 M272.64 241.26 C303.66 207.91, 331.39 171.09, 367.97 129.11 M271.69 243.18 C309.95 199.99, 347.54 156.21, 368.28 131.71 M278.01 240.95 C312.1 201.01, 350.77 158.57, 368.87 138.25 M276.3 242.2 C305.02 211.3, 330.69 181.5, 369.32 135.84 M282.91 242.65 C317.94 202.47, 353.32 164.26, 369.47 142.96 M281.86 243.1 C303.26 218.02, 325.26 193.98, 369.35 143.71 M287.38 242.26 C302.22 223.74, 319.97 201.47, 368.26 150.05 M287.15 241.74 C317.43 205.71, 349.69 170.61, 369.69 149.53 M291.27 241.14 C319.72 211.39, 349.48 180.68, 369.64 155.61 M292.1 242.32 C322.87 208.13, 353.09 174.4, 368.69 154.87 M296.56 240.91 C320.04 217.05, 341.57 194.66, 369.59 160.68 M297.48 241.89 C314.08 222.88, 332.85 202.56, 368.85 162.03 M303.24 242.39 C329.99 214.25, 355.17 182.84, 370.89 166.29 M304.07 242.98 C328.5 212.67, 353.39 185.02, 369.24 166.79 M307.71 240.39 C323.64 226.24, 337.6 212.05, 370.22 172.7 M308.36 242.11 C324.8 224.59, 340.28 206.29, 367.99 173.29 M314.62 242.71 C336.25 217.34, 360.01 191.42, 367.93 178.92 M313.75 242.4 C332.35 221.94, 348.55 202.78, 369.3 179.25 M319.29 240.87 C339.3 219.95, 359.09 197.34, 367.88 185.64 M320.21 242.06 C332.02 225.83, 345.25 210.35, 368.65 184.63 M323.54 241.12 C332.96 229.46, 343.17 218.94, 367.16 190.85 M325.48 243.04 C340.75 223.36, 357.43 205.2, 367.83 190.9 M330.09 243.21 C341.84 231.16, 349.37 218.94, 367.26 196.95 M330.77 241.53 C342.35 230.18, 352.5 216.18, 369.39 197.83 M334.43 243.33 C344.45 233.69, 352.76 221.42, 369.22 205.88 M335.94 242.54 C345.05 230.62, 354.8 220.83, 369.12 204.34 M339.21 240.95 C349.11 231.91, 357.43 221.73, 367.35 210.76 M341.16 242.47 C352.02 230.09, 362.44 218.16, 369.1 209.78 M346.06 241.72 C350.6 234.95, 358.29 231.62, 369.11 214.75 M346.15 241.67 C352.25 234.26, 359.27 227.33, 368.85 216.54 M350.04 240.32 C357.72 233.88, 362.93 226.92, 368.81 222.66 M351.82 240.99 C358.61 234.88, 364.28 226.93, 368.38 223.3 M355.53 243.31 C361.84 237.48, 364.77 230.06, 370.71 228.11 M355.53 242.37 C359.89 238.53, 363.95 234.13, 368.68 227.89 M362.22 241.08 C363.46 240.57, 365.73 237.98, 368.63 233.51 M362.33 241.64 C364.44 239.19, 366.99 236.22, 368.4 234.23" stroke="#228be6" stroke-width="0.5" fill="none"></path><path d="M1.01 0.31 C120.52 2.89, 240.74 3.24, 366.47 -1.13 M366.52 0.23 C368.44 50.08, 368.18 100.99, 364.62 242.33 M366.29 240.1 C226.48 241.39, 87.8 243.39, -1.11 242.13 M-0.55 239.8 C2.91 163.94, 0.61 86.84, 1.41 1.24" stroke="#000000" stroke-width="1.5" fill="none" stroke-dasharray="8 9"></path></g><g stroke-linecap="round"><g stroke-opacity="0.5" fill-opacity="0.5" transform="translate(195.61105824339143 223.36635717932376) rotate(0 117.84429331385289 24.96310741478061)"><path d="M1.07 -0.27 C40.21 8.02, 196.51 41.35, 235.52 49.76 M0.17 -1.46 C39.19 7.05, 196.07 43.11, 235.17 51.39" stroke="#000000" stroke-width="1" fill="none"></path></g><g stroke-opacity="0.5" fill-opacity="0.5" transform="translate(195.61105824339143 223.36635717932376) rotate(0 117.84429331385289 24.96310741478061)"><path d="M234.71 51.27 L221.31 55.17 L224.51 40.55 L235.65 51.26" stroke="none" stroke-width="0" fill="#000000" fill-rule="evenodd"></path><path d="M234.83 52.82 C230.16 53.61, 225.5 52.51, 220.33 54.2 M235.58 50.9 C231.98 52.13, 229.35 52.04, 220.31 54.04 M220.69 53.65 C222.35 51.22, 222.59 46.56, 222.31 43.35 M221.13 54.18 C221.58 51.15, 221.74 48.51, 223.03 42.08 M223.26 43.61 C227.65 43.8, 228.14 46.34, 233.71 50.46 M223.8 41.89 C226.64 44.04, 229.06 46.23, 235.66 51.66 M235.17 51.39 C235.17 51.39, 235.17 51.39, 235.17 51.39 M235.17 51.39 C235.17 51.39, 235.17 51.39, 235.17 51.39" stroke="#000000" stroke-width="1" fill="none"></path></g></g><g transform="translate(466 264) rotate(0 69.5 60)"><text x="0" y="14" font-family="Virgil, Segoe UI Emoji" font-size="16px" fill="#000000" text-anchor="start" style="white-space: pre;" direction="ltr">    Retriever</text><text x="0" y="34" font-family="Virgil, Segoe UI Emoji" font-size="16px" fill="#000000" text-anchor="start" style="white-space: pre;" direction="ltr"></text><text x="0" y="54" font-family="Virgil, Segoe UI Emoji" font-size="16px" fill="#000000" text-anchor="start" style="white-space: pre;" direction="ltr">    BM25</text><text x="0" y="74" font-family="Virgil, Segoe UI Emoji" font-size="16px" fill="#000000" text-anchor="start" style="white-space: pre;" direction="ltr">    TF-IDF</text><text x="0" y="94" font-family="Virgil, Segoe UI Emoji" font-size="16px" fill="#000000" text-anchor="start" style="white-space: pre;" direction="ltr">    ElasticSearch</text><text x="0" y="114" font-family="Virgil, Segoe UI Emoji" font-size="16px" fill="#000000" text-anchor="start" style="white-space: pre;" direction="ltr"></text></g><g stroke-opacity="0.5" fill-opacity="0.5" stroke-linecap="round" transform="translate(737 234.5) rotate(0 91 79.5)"><path d="M0 0 C0 0, 0 0, 0 0 M0 0 C0 0, 0 0, 0 0 M-0.79 6.01 C1.76 4.01, 4.05 1.54, 5 0.61 M-0.47 6.54 C1.76 3.96, 3.4 2.41, 4.69 0.23 M-0.83 10.47 C2.67 9.18, 4.76 6.86, 10.99 -0.64 M0.6 12.25 C3.03 9.45, 5.31 6.27, 11.34 0.61 M-0.76 18.18 C4.38 13.48, 9.02 6.69, 17.02 1.6 M0.44 18.11 C3.79 12.88, 8.82 8.52, 16.48 0.18 M-0.09 25.67 C5.01 19.67, 11.44 13.99, 21.47 1.36 M0.52 23.88 C5.29 18.98, 10.19 13.68, 20.92 0.15 M-0.09 29.35 C7.5 23.66, 12.58 15.22, 27.56 0.43 M-0.1 31.01 C7.33 22.18, 13.35 13.55, 25.45 -0.71 M-1.7 38.4 C8.39 25.1, 16.33 17.16, 33.33 0.24 M-0.58 37.81 C6.85 27.47, 14.69 19.5, 31.11 -0.56 M1.43 41.54 C12.96 24.68, 29.46 11.05, 35.59 0.67 M0.23 42.37 C7.41 33.06, 14.9 24.8, 36.59 0.26 M-1.91 50.2 C8.95 35.55, 20.94 25.19, 44.27 -1.12 M0.29 49.35 C14.35 34.01, 28.15 15.91, 41.92 -0.18 M1.17 54.06 C13.09 40.6, 25.04 22.94, 46.35 0.21 M-0.6 55.29 C14.74 38.82, 28.16 22.85, 47.66 1.13 M-0.38 59.99 C18.26 39.24, 41.13 16.05, 52.18 1.03 M0.37 61.16 C12.19 47.83, 23.25 33.85, 52.56 0.67 M0.11 67.64 C17.29 45.92, 37.72 25.61, 59.41 -0.37 M0.08 67.73 C16.69 47.42, 34.21 29.44, 58.78 1.06 M-1.78 72.58 C24.97 42.71, 50.63 16.52, 63.3 -0.9 M-0.09 72.31 C22.81 43.98, 48.34 17.23, 63.56 -0.5 M1.55 77.43 C20.33 53.36, 42.71 28, 68.65 -1.8 M0.24 79.6 C26.26 50.39, 51.29 19.67, 68.42 0.42 M-0.5 83.48 C27.48 53.86, 56.72 20.83, 76.14 -1.8 M-0.52 85 C28.55 53.27, 56.38 19.96, 74.81 -0.02 M-0.9 89.56 C30.03 57.96, 58.23 25.58, 78.25 1.85 M-0.76 91.19 C30.22 57.51, 60.55 22.94, 79.37 0.7 M-1.24 99.66 C27.09 67.3, 53.26 34.57, 85.56 0.14 M-0.63 97.38 C27.27 67.35, 52.87 35.87, 85.54 -0.06 M-0.63 102.07 C29.98 67.1, 59.92 34.35, 90.72 -0.76 M0.43 104.19 C28.45 69.65, 56.4 37.97, 90.79 0.55 M-0.46 108.5 C39.22 69.05, 74.74 26.4, 94.72 -0.62 M0.15 110.46 C35.95 67.76, 71.68 27.3, 96.31 -0.64 M1.26 113.69 C35.56 75.2, 72.5 29.19, 98.86 1.69 M0.49 116.48 C20.47 90.88, 42.42 64.72, 100.16 -0.2 M1.77 122.32 C23.92 94.6, 51.45 65.68, 107.07 -0.89 M0.79 122.68 C31.98 83.68, 63.97 47.63, 107.03 0.39 M-0.68 128.6 C28.91 92.99, 58.69 63.27, 109.81 -0.78 M-1.18 128.83 C39.64 83.1, 78.84 40.36, 111.33 -0.6 M0.31 135.39 C30.17 96.66, 64.3 58.53, 117.76 -0.07 M-0.76 134.9 C37.75 90.04, 77.03 45.71, 116.31 0.08 M-1.58 141.39 C46.91 89.61, 92.78 37.29, 121 0.53 M0.1 139.89 C47.76 87.35, 92.4 34.22, 122.47 -0.51 M0.36 144.67 C34.59 107.8, 68.92 69.91, 128.18 0.88 M-0.18 145.11 C26.48 116.06, 53.02 84.25, 126.06 -0.63 M1.55 153.5 C48.59 97.42, 97.44 37.92, 132.22 0.89 M0.37 152.72 C52.05 93.42, 103.87 33.59, 132.15 -0.59 M0.64 158.58 C37.36 114.18, 73.52 72.14, 138.02 0 M0.42 159.17 C25.87 127.48, 55.25 94.68, 137.57 -0.3 M3.88 159.96 C46.71 112.61, 92.48 59.9, 141.65 -1.14 M2.49 160.95 C42.44 116.71, 82.2 69.5, 143.11 -0.52 M8.41 160.9 C51.06 113.02, 95.05 61.61, 148.19 -0.78 M7.53 161.07 C49.76 112.42, 91.86 65.34, 148.14 -0.31 M14.86 160.11 C56.3 112.61, 102.26 61.64, 153.19 -1.38 M12.93 160.94 C68.6 100.31, 122.4 37.26, 154.56 -0.65 M17.89 163.01 C65.55 111.58, 109.47 59.74, 159.45 0.76 M18.22 162.53 C46.8 127.63, 75.7 95.34, 158.42 0.25 M23.76 161.96 C64.96 114.45, 107.1 64.45, 165.72 -0.34 M24.49 160.69 C53.02 126.34, 84.66 90.93, 164.36 -0.29 M28.57 160.62 C58.5 129.56, 86.47 96.14, 169.47 0.5 M29.59 161.85 C73.13 108.56, 118.96 57.21, 170.16 0.58 M35.03 161.62 C70.42 120.09, 104.57 81.04, 176.61 0.34 M35.49 161.03 C80.25 106.31, 128.13 52.5, 175.94 0.46 M41.13 162.87 C90.92 104.65, 141.08 45.25, 179.7 -1.57 M39.91 162.34 C95.16 97.35, 151.86 33.39, 179.25 0 M46.43 162.81 C97.42 99.73, 149.66 39.64, 183.28 3.68 M45.46 161.19 C85.59 114.1, 126.59 66.95, 184.03 1.3 M51.26 160.14 C95.79 106.3, 145.35 53.96, 185.33 6.15 M49.48 161.31 C85.66 120.82, 121.06 78.76, 184.99 7.27 M55.93 163.01 C99.06 113.82, 139.82 67.3, 184.14 13.14 M54.95 160.41 C93.26 118.61, 130.58 75.18, 184.41 13.41 M59.98 162.99 C90.93 126.5, 123.73 90.96, 183.86 18.24 M60.71 162.48 C97.66 119.54, 133.92 77.4, 184.75 18.91 M65.15 159.26 C109.69 112.38, 151.87 61.01, 184.06 24.52 M66.16 162.12 C101.45 119.57, 136.19 79.24, 184.52 26.72 M70.84 162.6 C103.66 124.54, 136.12 88.41, 184.67 33.27 M70.95 161.31 C112.24 112.76, 153.15 66.38, 182.76 32.96 M76.6 162.07 C99.34 133.56, 121.9 105.45, 185.24 38.93 M76.58 161.89 C113.84 118.29, 150.84 76.87, 183.68 37.68 M81.97 159.92 C101.57 135.8, 124.43 111.73, 184.13 44.28 M81.53 162.16 C108.96 129.35, 138.24 98.03, 183.11 43.73 M88.92 162.42 C111.56 135.31, 130.89 110.72, 184.23 51.96 M87.03 161.44 C112.14 133.68, 136.71 105.42, 183.52 49.98 M93.68 162.78 C122.68 129.77, 149.3 94.83, 184.8 55.45 M92.18 160.61 C121.74 128.29, 149.17 96.52, 183.2 55.98 M97.1 159.98 C130.6 126.43, 160.33 92.88, 183.25 62.62 M97.67 160.67 C119.65 135.56, 141.43 110.87, 183.33 63.21 M104.59 161.69 C122.23 142.09, 140.93 119.31, 182.23 66.89 M102.98 161.36 C131.21 132.31, 155.78 102.42, 184.4 67.89 M108.41 159.1 C128.72 141.38, 143.74 121.55, 184.81 74.35 M110.02 161.64 C126.71 141.97, 144.05 120.86, 184.72 75.86 M115.64 161.85 C133.84 140.4, 153.3 119.23, 184.24 79.39 M114.36 162.3 C131.23 142.88, 149.55 122.28, 183.44 79.79 M117.8 161.59 C137.88 138.01, 161.91 115.71, 183.75 87.55 M118.26 161.28 C132.86 145.22, 149.32 127.83, 183.71 87.84 M126.08 163.16 C145.84 136, 170.07 111.8, 182.34 95.19 M125.11 160.45 C143.21 140.23, 163.69 118.08, 183.73 92.92 M130.47 163.68 C144.47 146.63, 159.53 126.42, 185.89 100.55 M129.91 162.46 C150.27 139.9, 169.19 118.29, 183.26 99.48 M133.48 160.19 C154.37 141.16, 170.78 122.82, 182.32 106.95 M136.32 162.01 C151.44 142.74, 169.28 124.08, 184.01 106.4 M142 160.53 C151.41 150.04, 160.59 137.57, 183.35 110.36 M139.84 162.45 C154.57 145.58, 167.88 130.02, 184.72 110.23 M145.71 162.2 C161.16 144.41, 174.09 129.94, 184.3 118.29 M145.48 162.32 C161.1 144.05, 174.45 128.39, 184.36 117.8 M152.92 163.26 C162.03 146.57, 175.27 135.37, 181.9 125.43 M150.95 161.92 C157.43 153.03, 164.63 145.03, 183.12 123.48 M156.96 161.15 C166.59 151.83, 173.36 142.32, 185.38 128.75 M156.37 161.87 C164.11 153.43, 169.77 144.86, 184.9 130.06 M160.06 159.66 C170.17 150.94, 180.18 140.68, 183.63 134.65 M161.44 161.7 C169.78 152.25, 179.17 141.36, 183.78 135.5 M167.73 159.68 C173.74 151.65, 180.83 145.59, 182.95 142.56 M167.15 160.33 C171.21 155.16, 176.63 151.7, 185.06 142.29 M172.56 162.15 C174.07 157.46, 175.35 157.38, 183.03 147.87 M172.84 160.85 C175.16 159.28, 176.61 156.37, 184.38 147.99 M177.39 162.08 C178.68 159.07, 180.67 158.09, 183.01 153.97 M178.05 160.91 C178.93 159.79, 180.44 157.9, 183.41 154.47" stroke="#7950f2" stroke-width="0.5" fill="none"></path><path d="M0.4 -0.5 C40.09 -2.4, 77.9 -0.61, 180.77 0.89 M-0.25 -0.81 C60.18 -2.6, 119.07 -1.38, 182.9 0.24 M180.2 1.84 C184.45 62.88, 181.78 124.38, 182.75 157.55 M182.19 -0.55 C183.16 34.14, 182.39 68, 182.23 159.56 M182.08 158.73 C144.9 156.09, 109.56 157.88, 0.54 159.3 M182.03 159.83 C140.02 157.65, 99.58 156.75, 1 158.62 M1.08 157.8 C-3.03 123.26, -2.52 85.3, 0.59 1.65 M-0.66 158.82 C-1.35 114.09, -2.02 68.16, -0.71 0.77" stroke="#000000" stroke-width="1" fill="none"></path></g><g stroke-linecap="round"><g stroke-opacity="0.5" fill-opacity="0.5" transform="translate(644.7745732255166 304.85995545857077) rotate(0 42.02192275994196 -1.572788562873484)"><path d="M1.04 -0.38 C15.02 -0.69, 69.99 -2.39, 83.91 -2.77 M0.13 -1.62 C13.99 -1.73, 69.16 -1.71, 83.21 -1.74" stroke="#000000" stroke-width="1" fill="none"></path></g><g stroke-opacity="0.5" fill-opacity="0.5" transform="translate(644.7745732255166 304.85995545857077) rotate(0 42.02192275994196 -1.572788562873484)"><path d="M84.14 -0.4 L69.38 3.62 L67.7 -7.5 L83.19 -0.29" stroke="none" stroke-width="0" fill="#000000" fill-rule="evenodd"></path><path d="M82.74 -1.16 C77.82 1.73, 73.82 3.11, 69.2 4.1 M82.89 -1.11 C77.34 0.64, 73.51 3.68, 69.16 3.94 M69.01 5.81 C70.46 2.31, 69.13 -1.29, 68.86 -8.56 M69 5.05 C69.7 1.17, 69.87 -1.32, 69.21 -8.03 M70.55 -9.01 C75.18 -4.48, 80.17 -5.08, 82.62 -1.7 M69.43 -8.11 C74.14 -5.86, 78.55 -4.72, 83.39 -1.79 M83.21 -1.74 C83.21 -1.74, 83.21 -1.74, 83.21 -1.74 M83.21 -1.74 C83.21 -1.74, 83.21 -1.74, 83.21 -1.74" stroke="#000000" stroke-width="1" fill="none"></path></g></g><g transform="translate(652.5 310) rotate(0 27 20)"><text x="27" y="14" font-family="Virgil, Segoe UI Emoji" font-size="16px" fill="#000000" text-anchor="middle" style="white-space: pre;" direction="ltr">Filter</text><text x="27" y="34" font-family="Virgil, Segoe UI Emoji" font-size="16px" fill="#000000" text-anchor="middle" style="white-space: pre;" direction="ltr">(FAST)</text></g><g transform="translate(782 258) rotate(0 52 70)"><text x="0" y="14" font-family="Virgil, Segoe UI Emoji" font-size="16px" fill="#000000" text-anchor="start" style="white-space: pre;" direction="ltr">Ranker</text><text x="0" y="34" font-family="Virgil, Segoe UI Emoji" font-size="16px" fill="#000000" text-anchor="start" style="white-space: pre;" direction="ltr"></text><text x="0" y="54" font-family="Virgil, Segoe UI Emoji" font-size="16px" fill="#000000" text-anchor="start" style="white-space: pre;" direction="ltr">SentenceBert</text><text x="0" y="74" font-family="Virgil, Segoe UI Emoji" font-size="16px" fill="#000000" text-anchor="start" style="white-space: pre;" direction="ltr">DPR</text><text x="0" y="94" font-family="Virgil, Segoe UI Emoji" font-size="16px" fill="#000000" text-anchor="start" style="white-space: pre;" direction="ltr">Zero Shot </text><text x="0" y="114" font-family="Virgil, Segoe UI Emoji" font-size="16px" fill="#000000" text-anchor="start" style="white-space: pre;" direction="ltr">Embeddings</text><text x="0" y="134" font-family="Virgil, Segoe UI Emoji" font-size="16px" fill="#000000" text-anchor="start" style="white-space: pre;" direction="ltr"></text></g><g stroke-linecap="round"><g stroke-opacity="0.5" fill-opacity="0.5" transform="translate(922.3157529792265 304.8344099137535) rotate(0 47.52166738815504 -72.18497238424519)"><path d="M-0.75 -0.94 C15.25 -24.91, 79.78 -119.94, 95.8 -143.62 M1.05 1.18 C17.01 -23.18, 79.72 -121.2, 95.36 -145.55" stroke="#000000" stroke-width="1" fill="none"></path></g><g stroke-opacity="0.5" fill-opacity="0.5" transform="translate(922.3157529792265 304.8344099137535) rotate(0 47.52166738815504 -72.18497238424519)"><path d="M96.73 -143.64 L95.31 -132.4 L81.91 -137.48 L95.61 -145.82" stroke="none" stroke-width="0" fill="#000000" fill-rule="evenodd"></path><path d="M94.19 -144.33 C95.29 -140.71, 95.44 -136.28, 94.21 -130.68 M95.47 -145.08 C94.94 -140.41, 93.67 -134.18, 92.64 -130.4 M92.99 -130.31 C91.37 -133.03, 88.63 -134.53, 83.04 -136.76 M93.86 -130.35 C89.61 -133.25, 85.04 -135.24, 82.49 -137.29 M83.56 -137.95 C84.89 -137.99, 87.59 -141.36, 94.73 -144.29 M83.31 -137.99 C84.7 -139.7, 87.33 -141.5, 95 -144.84 M95.36 -145.55 C95.36 -145.55, 95.36 -145.55, 95.36 -145.55 M95.36 -145.55 C95.36 -145.55, 95.36 -145.55, 95.36 -145.55" stroke="#000000" stroke-width="1" fill="none"></path></g></g><g transform="translate(1032.5 63) rotate(0 144 70)"><text x="0" y="14" font-family="Virgil, Segoe UI Emoji" font-size="16px" fill="#000000" text-anchor="start" style="white-space: pre;" direction="ltr">Top Documents</text><text x="0" y="34" font-family="Virgil, Segoe UI Emoji" font-size="16px" fill="#000000" text-anchor="start" style="white-space: pre;" direction="ltr">[</text><text x="0" y="54" font-family="Virgil, Segoe UI Emoji" font-size="16px" fill="#000000" text-anchor="start" style="white-space: pre;" direction="ltr">    {</text><text x="0" y="74" font-family="Virgil, Segoe UI Emoji" font-size="16px" fill="#000000" text-anchor="start" style="white-space: pre;" direction="ltr">        "article": "Cherche is a tool",</text><text x="0" y="94" font-family="Virgil, Segoe UI Emoji" font-size="16px" fill="#000000" text-anchor="start" style="white-space: pre;" direction="ltr">        "title": "Cherche"</text><text x="0" y="114" font-family="Virgil, Segoe UI Emoji" font-size="16px" fill="#000000" text-anchor="start" style="white-space: pre;" direction="ltr">    }</text><text x="0" y="134" font-family="Virgil, Segoe UI Emoji" font-size="16px" fill="#000000" text-anchor="start" style="white-space: pre;" direction="ltr">]</text></g><g stroke-opacity="0.3" fill-opacity="0.3" stroke-linecap="round" transform="translate(1024 49.5) rotate(0 152.5 76.5)"><path d="M0 0 C0 0, 0 0, 0 0 M0 0 C0 0, 0 0, 0 0 M-0.03 7.03 C1.01 4.92, 2.89 4.17, 4.71 -0.23 M-0.04 6.23 C0.62 5.03, 1.7 3.78, 5.13 0.64 M-0.15 12.12 C2.13 8.87, 4.52 6.43, 10.64 1.5 M0.47 11.86 C4.84 7.84, 8.55 2.25, 10.21 0.65 M0.66 20.25 C2.52 11.87, 7.58 8.73, 15.34 0.74 M-0.75 18.98 C4.37 14.11, 7.98 8.68, 15.7 0.53 M-0.51 22.21 C3.84 18.42, 10.7 13.01, 21.93 0.04 M-0.38 24.04 C6.27 18.64, 11.44 11.12, 20.64 -0.85 M-0.22 31.6 C9.74 20.34, 18.59 7.88, 24.8 2.15 M-0.99 31.22 C8.23 22.42, 15.5 13.59, 26.62 1.22 M1.39 37.48 C8.97 26.57, 16.53 15.77, 31.24 -1.68 M0.07 37.58 C11.31 22.99, 22.53 9.39, 32.34 -0.69 M-0.51 43.83 C12.85 27.97, 27.35 8.99, 37.08 -0.17 M-0.64 41.69 C13.16 28.31, 26.15 13.37, 36.85 0.43 M-0.57 48.9 C15.21 33.85, 25.79 18.11, 40.81 1.1 M-0.11 48.35 C12.07 34.51, 25.23 20.2, 43.31 0.51 M2.25 53.06 C13.28 37.28, 28.49 22.52, 47.24 -1.19 M0.31 53.73 C17.94 33.75, 36.97 11.76, 48.34 0.79 M0.28 62 C11.16 46.73, 23.29 31.72, 53.57 -0.94 M0.22 61.85 C13.89 44.19, 28.9 29.56, 53.82 0.3 M-1.4 66.5 C18.21 46.13, 41.16 21, 57.05 0.44 M-0.68 67.76 C20.95 40.68, 44.86 16.26, 58.19 0.27 M1.96 73.89 C21.68 50.83, 41.84 24.43, 65.11 1.2 M0.03 72.2 C23.04 48.37, 43.76 22.53, 64.28 0.58 M1.69 79.38 C25.43 50.06, 50.91 22.16, 66.96 -1.63 M0.03 80.31 C20.17 55.48, 41.46 31.75, 68.64 0.2 M1.16 85.96 C22.6 58.49, 44.91 31.74, 75.74 -1.16 M-0.55 84.82 C15.74 67.72, 30.89 50.03, 75.29 -0.4 M-0.59 91.52 C18.86 70.83, 36.32 50.91, 80.12 -1.43 M0.21 90.49 C18.22 72.18, 33.48 51.7, 79.1 -0.76 M0.62 96.7 C27.38 63.64, 55.3 33.36, 86.44 1.61 M-0.89 97.27 C18.04 77.24, 35.47 57.99, 85.57 -0.06 M1.01 104.3 C32.88 65, 66.69 24.43, 90.34 -0.68 M0.49 103.02 C33.22 65.69, 66.39 27.93, 90.13 -0.61 M-0.26 110.63 C32.21 72.35, 68.24 33.38, 94.88 1.44 M0.76 110.18 C26.34 80.59, 51.15 51.23, 96.01 0.53 M0.4 117.4 C31.91 78.98, 68.26 37.46, 102.15 -0.77 M-0.38 114.95 C25.05 86.07, 52.8 55.88, 101.46 0.01 M-1.39 122.85 C36.72 80.2, 72.75 38.94, 107.41 0.59 M-0.67 121.76 C22.67 95.42, 45.74 69.56, 105.66 0.63 M-0.47 129.58 C39.57 83.51, 80.64 33.85, 110.74 1.19 M-0.12 128.42 C27.65 97.1, 54.15 65.11, 111.96 -0.21 M0.7 132 C30.8 98.8, 62.3 63.02, 114.44 0.36 M-0.42 134.84 C27.8 101.86, 55.03 69.19, 117.07 0.64 M-0.99 139.65 C29.89 108.91, 54.9 75.38, 122.01 0.43 M-0.35 139.68 C32.54 101.48, 67.8 60.45, 121.66 0.77 M0.14 145.07 C43.9 91.43, 91.28 40.8, 125 2.14 M-0.6 145.58 C33.39 107.26, 66.87 68.31, 126.92 0.98 M-1.64 151.13 C26.54 120.25, 56.76 88.34, 132.53 0.42 M-0.43 151.66 C49.34 94.11, 99.88 35.64, 131.83 0.3 M4.23 154.4 C31.9 122.2, 61.48 90.07, 138.71 -0.09 M2.56 154.54 C46.8 104.32, 89.48 53.85, 138 0.68 M9.39 155.45 C50.85 106.7, 93.22 57.48, 141.74 1.04 M8.66 155.44 C57.82 96.92, 109.26 38.68, 142.63 -0.71 M13.47 154.24 C50.47 114.81, 88.23 71.68, 149.02 0.94 M13.6 155.17 C40.77 124.35, 68.68 92.02, 148.15 0.5 M17.42 154.49 C55.31 115.49, 88.47 75.54, 154.93 -1.18 M19.51 156.05 C63.74 99.65, 110.55 46.88, 153.64 -0.49 M23.27 155.73 C72.17 96.05, 124.73 38.14, 157.73 -0.47 M23.73 155.23 C54.96 120.6, 84.53 85.27, 159.01 -0.54 M28.8 156.2 C64.71 112.82, 102.26 69.43, 165.55 1.31 M29.24 155.72 C83.46 93.22, 136.63 30.27, 163.66 0.44 M33.77 156.26 C87.74 92.71, 140.4 33.59, 170.6 -0.66 M34.55 155.08 C65.99 120.06, 95.87 84.71, 168.79 0.54 M38.83 156.94 C79.1 111.65, 118.14 66.56, 176.55 -1.5 M39.49 155.75 C77.68 112.33, 115.24 68.66, 174.3 -0.82 M44.6 156.3 C74.48 124.47, 102.08 91.07, 179.79 -1 M45.78 155.49 C72.56 124.57, 98.96 94.71, 179.38 -0.1 M50.56 155.07 C102.82 96.27, 155.6 31.69, 186.18 -1.49 M50.29 155.96 C100.55 97.46, 148.82 42.76, 186.43 -0.6 M54.2 156.59 C96.56 105.3, 141.39 54.61, 192.29 -0.83 M56.38 154.9 C91.64 114.97, 129.11 71.54, 191.05 -0.68 M60.53 154.62 C110.6 100.1, 157.2 42.46, 195.05 -0.98 M61.79 154.71 C95.85 116.06, 130.47 76.62, 196.6 0.59 M66.98 154.62 C97.13 120.79, 126.94 84.02, 201.46 -0.98 M66.37 154.69 C104.05 110.97, 141.59 66.79, 200.65 0.92 M73 154.52 C106.92 115.93, 143.24 74.41, 206.19 -2 M72.5 156 C100.66 120.4, 129.57 88.51, 207.74 -0.11 M75.51 155.25 C110.71 114.87, 144.99 75.98, 211.97 -0.24 M76.77 155.68 C107.88 119.59, 138.68 83.27, 212.27 -0.01 M82.17 155.78 C128.63 101.92, 173.13 52.21, 217.87 0.83 M82.85 155.22 C125.71 105.48, 167.74 57.16, 218.44 -0.79 M88.98 156.51 C136.24 101.45, 185.38 44.46, 221.95 1.13 M87.85 156.31 C120.3 118.52, 153.66 81.68, 223.05 -0.75 M93.53 154.33 C130.65 109.54, 167.75 67.38, 227.23 -1.1 M93.41 155.2 C129.77 114.95, 166.08 73.03, 228.35 -0.14 M97.6 156.7 C137.98 111.92, 176.54 65.59, 233.73 1.34 M97.37 156.24 C146.58 100.94, 196.37 45.64, 233.79 -0.06 M102.52 155.29 C152.52 103.33, 200.3 46.39, 236.68 -1.1 M103.11 155.54 C133.38 119.9, 163.32 85.73, 237.49 -0.24 M108.24 154.4 C139.27 119.69, 167.52 87.56, 243.13 0.67 M109.44 156.3 C160.73 94.6, 212.16 35.6, 243.69 0.06 M115.84 155.17 C157.69 108.05, 197.83 59.31, 249.43 1.97 M114.59 154.31 C165.23 97.24, 215.83 38.77, 248.85 1.12 M119.46 155.59 C164.91 102.38, 212.69 51.43, 253.69 1.47 M118.53 154.98 C150.33 117.65, 182.56 82.38, 253.84 -0.33 M126.59 156.07 C154.08 120.6, 182.65 87.64, 258.45 1.09 M125.26 155.27 C168.58 105.59, 213.52 55.22, 259.18 0.67 M128.66 155.85 C163.21 117.19, 198.55 74.06, 266.01 0.99 M130.82 155.49 C183.19 96.69, 233.56 37.72, 265.47 -0.84 M134.91 155.81 C170.9 114.49, 205.4 72.97, 270.42 -0.53 M135.6 156.12 C182.25 102.93, 228.45 50.88, 270.44 0.97 M139.18 154.6 C192.48 97.7, 247.79 34.31, 274.17 -1.41 M141.04 155.16 C168.59 123.27, 198.35 90.21, 276.41 -0.78 M147.14 155.53 C194.84 100.75, 244.39 44.29, 280.18 0.58 M146.41 156.13 C183.92 108.47, 224.37 61.04, 280.3 0.4 M149.66 155.1 C201.98 98.83, 252.05 41.9, 287.12 -0.79 M152.09 156.04 C185.26 115.49, 219.59 75.97, 286.4 -0.93 M157.51 157.18 C196.57 106.72, 238.39 57.81, 292.09 1.06 M156.65 155.39 C201.01 106.22, 244.34 54.92, 291.01 0.34 M161.1 153.75 C197.68 113.97, 228.3 75.04, 296.61 -0.82 M162.55 156.07 C213 97.22, 264.33 37.72, 297.08 -0.01 M165.15 156.85 C201.5 113.73, 239.48 73.04, 302.2 1.39 M166.09 155.31 C216.66 98.98, 267.26 40.23, 302.3 -0.21 M173.36 154.37 C212.44 107.77, 250.95 62.61, 307.94 1.95 M172.04 154.34 C222.95 97.59, 271.88 40.38, 307.16 1.56 M176.78 156.36 C210.56 118.36, 246.36 81.81, 305.98 6.13 M178.29 155.86 C205.88 122.74, 235.54 87.98, 306.64 8.35 M181.35 153.78 C211.43 126.72, 234.04 94.42, 306.17 13.49 M182.95 154.69 C229.79 100.06, 277.6 46.17, 307.22 12.9 M189.57 155.68 C218.19 117.77, 249.89 80.93, 306.99 21.08 M187.62 155.39 C226.06 111.19, 264.66 67.13, 306.49 18.74 M193.87 157 C223.2 121.65, 253.63 83.98, 304.63 25.72 M193.41 155.23 C222.4 122.51, 252.56 88.51, 306.48 25.87 M200.34 153.54 C238.55 108.07, 277.48 60.66, 304.84 31.31 M198.2 156.48 C232.01 117.32, 265.76 78.42, 306.99 31.28 M202.9 153.15 C242.79 109.43, 283.22 64.21, 304.36 36.61 M204.41 154.89 C225.02 130.29, 247.72 106.04, 306.86 38.09 M210.84 154.81 C245.9 116.38, 282.24 73.19, 305.86 42.63 M208.37 156.09 C239.27 123.48, 266.71 89.77, 306.46 44.24 M215.03 155.77 C244.2 125.53, 273.05 90.8, 304.84 52.07 M214.11 156.06 C247.5 116.19, 282.65 76.02, 306.33 49.22 M219.48 154.68 C251.28 120.42, 283.94 82.02, 307.07 57.12 M220.67 155.53 C253.2 117.62, 287.26 78.76, 306.35 55.22 M227.52 154.7 C252.93 121.69, 283.3 88.18, 308.27 62.63 M225.88 154.45 C241.73 134.97, 258.16 115.5, 307.02 61.56 M229.37 154.65 C258.76 123.16, 289.95 87.04, 307.51 69.95 M229.75 154.44 C256.62 125.79, 282.28 96.48, 306.64 67.91 M236.32 156.09 C259.62 128.57, 281.93 105.37, 306.19 72.33 M236.21 155.15 C261.27 128.08, 283.81 101.78, 305.89 74.96 M240.31 154.53 C254.07 142.22, 268.4 126.57, 306.89 82.32 M240.46 154.81 C265.2 127.65, 291.56 97.59, 306.43 81.1 M247.42 155.18 C267.6 129.71, 290.71 105.89, 306.85 87.56 M246.11 155.32 C263.19 136.72, 280.85 117.09, 306.05 85.63 M252.78 156.44 C266.36 138.27, 277.81 123.61, 305.61 94.02 M251.77 154.98 C269.47 133.91, 287.89 114.09, 305.99 93.18 M255.46 157.23 C269.51 141.74, 283.4 127.75, 306.49 97.76 M257.69 155.2 C272.8 137.84, 286.61 119.34, 306.1 98.88 M263.95 156.84 C274.9 140.16, 287.73 127.84, 307.46 104.4 M262.83 155.63 C273.25 142.42, 283.96 131.8, 307.42 105.11 M267.79 154.1 C275.88 144.65, 287.92 132.13, 308.06 112.43 M268.27 156.66 C276.35 144.91, 285.94 132.6, 306.78 112.11 M271.68 154.46 C281.35 144.46, 289.36 135.36, 306.88 117.11 M272.93 155.78 C279.54 147.23, 287.11 137.54, 305.97 117.22 M279.11 157.18 C286.32 146.13, 296.37 135.02, 305.18 121.62 M278.97 156.13 C283.63 148.45, 291.07 141.69, 307.02 123.31 M282.51 154.38 C291 147.01, 295.22 142.14, 304.35 128.88 M283.53 154.81 C291.81 146.2, 302.49 135.14, 305.39 129.93 M286.83 154.21 C293.98 147.28, 300.39 140.45, 304.83 136.97 M288.08 155.41 C294.13 150.1, 300 143.47, 306.55 136.06 M295.55 155.89 C300.01 149.85, 303.15 145.69, 305.13 142.4 M294.25 154.49 C297.88 149.92, 302.69 145.71, 306.52 140.83 M299.17 156.47 C301.25 153.48, 305.76 149.67, 306.65 147.9 M299.19 155.6 C302.13 153.05, 303.96 149.66, 306.95 146.73" stroke="#228be6" stroke-width="0.5" fill="none"></path><path d="M-0.07 0.74 C118.96 1.09, 237.02 0.28, 304.49 -0.04 M304.69 0.35 C302.58 54.97, 304.94 110.25, 303.97 153.99 M303.58 153.65 C191.65 154.48, 77.76 154.43, -0.29 152.83 M1.61 151.42 C-1.39 113.18, -2.45 79.03, -0.96 0.99" stroke="#000000" stroke-width="1.5" fill="none" stroke-dasharray="8 9"></path></g><g transform="translate(1057.5 256) rotate(0 37.5 20)"><text x="37.5" y="14" font-family="Virgil, Segoe UI Emoji" font-size="16px" fill="#000000" text-anchor="middle" style="white-space: pre;" direction="ltr">Question </text><text x="37.5" y="34" font-family="Virgil, Segoe UI Emoji" font-size="16px" fill="#000000" text-anchor="middle" style="white-space: pre;" direction="ltr">Answering</text></g><g transform="translate(1043.5 391) rotate(0 54.5 10)"><text x="54.5" y="14" font-family="Virgil, Segoe UI Emoji" font-size="16px" fill="#000000" text-anchor="middle" style="white-space: pre;" direction="ltr">Summarization</text></g><g stroke-linecap="round"><g stroke-opacity="0.4" fill-opacity="0.4" transform="translate(925.3506542595057 308.4788644192149) rotate(0 49.484259463724925 -9.86379051850443)"><path d="M-0.19 0.88 C16.16 -2.39, 81.88 -17.24, 98.6 -20.61 M-1.75 0.3 C14.91 -2.69, 83.82 -15.56, 100.72 -19.12" stroke="#000000" stroke-width="1" fill="none"></path></g><g stroke-opacity="0.4" fill-opacity="0.4" transform="translate(925.3506542595057 308.4788644192149) rotate(0 49.484259463724925 -9.86379051850443)"><path d="M102.4 -20.89 L88.59 -8.47 L87.8 -23.93 L98.93 -20.09" stroke="none" stroke-width="0" fill="#000000" fill-rule="evenodd"></path><path d="M101.82 -20.54 C96.39 -15.59, 93.84 -11.98, 87.21 -9.94 M100.1 -19.47 C96.18 -15.68, 91.64 -11.34, 88.59 -10.35 M89.75 -10.92 C88.59 -14.42, 87.87 -17.72, 85.95 -23.45 M88.2 -10.77 C88.46 -13.54, 87.56 -16.7, 86.56 -22.36 M87.58 -22.51 C91.49 -20.83, 93.61 -20.72, 100.28 -20.57 M85.66 -22.94 C91.27 -21.46, 95.45 -20.58, 100.12 -18.92 M100.72 -19.12 C100.72 -19.12, 100.72 -19.12, 100.72 -19.12 M100.72 -19.12 C100.72 -19.12, 100.72 -19.12, 100.72 -19.12" stroke="#000000" stroke-width="1" fill="none"></path></g></g><g stroke-linecap="round"><g stroke-opacity="0.5" fill-opacity="0.5" transform="translate(925.6231560828082 313.6151812442746) rotate(0 52.51720381481641 36.865293432443934)"><path d="M0.73 -0.5 C18.13 12.12, 88.02 63.08, 105.38 75.54 M-0.34 -1.81 C16.89 10.47, 87.45 60.84, 104.9 73.67" stroke="#000000" stroke-width="1" fill="none"></path></g><g stroke-opacity="0.5" fill-opacity="0.5" transform="translate(925.6231560828082 313.6151812442746) rotate(0 52.51720381481641 36.865293432443934)"><path d="M106.33 74.47 L88.58 70.09 L99.37 60.93 L105.07 73.75" stroke="none" stroke-width="0" fill="#000000" fill-rule="evenodd"></path><path d="M104.27 74.77 C99.86 73.17, 92.61 70.84, 91.66 70.31 M105.62 73.37 C100.14 73.35, 94.59 72.02, 89.65 71.45 M89.67 70.31 C92.47 68.31, 93.55 65.65, 97.05 60 M90.07 70.74 C91.56 67.93, 93.76 66.61, 96.99 60.43 M98.72 61 C99.66 66.51, 104.33 70.62, 105.44 73.1 M98.12 61.01 C99.38 64.17, 101.34 67.74, 105.01 74.24 M104.9 73.67 C104.9 73.67, 104.9 73.67, 104.9 73.67 M104.9 73.67 C104.9 73.67, 104.9 73.67, 104.9 73.67" stroke="#000000" stroke-width="1" fill="none"></path></g></g><g transform="translate(908.6666666666665 169) rotate(0 45 34.5)"><text x="45" y="16" font-family="Virgil, Segoe UI Emoji" font-size="17.86666666666665px" fill="#000000" text-anchor="middle" style="white-space: pre;" direction="ltr">Rank and </text><text x="45" y="39" font-family="Virgil, Segoe UI Emoji" font-size="17.86666666666665px" fill="#000000" text-anchor="middle" style="white-space: pre;" direction="ltr">filter</text><text x="45" y="62" font-family="Virgil, Segoe UI Emoji" font-size="17.86666666666665px" fill="#000000" text-anchor="middle" style="white-space: pre;" direction="ltr"></text></g><g stroke-opacity="0.8" fill-opacity="0.8" transform="translate(432 184) rotate(0 68.5 12.5)"><text x="0" y="18" font-family="Virgil, Segoe UI Emoji" font-size="20px" fill="#000000" text-anchor="start" style="white-space: pre;" direction="ltr">Neural Search</text></g><g stroke-opacity="0.4" fill-opacity="0.4" stroke-linecap="round" transform="translate(1170.5 223.5) rotate(0 133 56)"><path d="M0 0 C0 0, 0 0, 0 0 M0 0 C0 0, 0 0, 0 0 M-1.04 5.8 C2.05 4.86, 2.94 2.29, 4.3 0.69 M-0.23 6.45 C1.44 4.53, 2.75 2.55, 4.88 0.7 M-0.37 12.73 C2.67 10.95, 5.73 8.18, 11.29 -0.63 M-0.31 11.62 C3.13 8.54, 6.8 4.98, 9.84 0.22 M-0.59 16.56 C7.04 11.57, 11.37 6.34, 14.92 1.77 M0.67 18.57 C6.37 11.69, 11.71 4.45, 16 -0.38 M0.76 25.27 C8.49 15.62, 15.02 8.05, 20.23 -1.79 M-0.47 24.02 C7.18 16.19, 15.35 7.94, 21.34 0.31 M0.46 30.01 C4.88 22.7, 14.39 13.99, 25.72 -0.6 M-0.16 29.48 C5.65 23.03, 13.18 15.52, 26.33 -0.17 M-1.22 38.88 C7.43 26.85, 21.18 15.05, 31.87 0.48 M-0.49 37.12 C11.68 23.38, 22.17 11.51, 32.5 0.47 M-1.49 44.29 C13.99 28.36, 25.88 11.93, 37.18 -0.27 M-0.83 42.47 C9.56 30.28, 18.93 20.6, 37.36 0.02 M0.12 50.08 C11.56 37.51, 21.3 24.44, 40.55 1.51 M0.61 49.31 C11.98 34.52, 23.23 22.31, 42.17 0.24 M-0.52 55.13 C15.86 37.85, 28.17 22.09, 49.12 -0.93 M-0.14 54.89 C10.63 43.03, 20.47 31.36, 47.06 -0.5 M-0.29 60.23 C17.24 39.62, 39.87 14.52, 52.72 1.47 M0.3 60.55 C12.2 48.06, 23.19 34.25, 52.77 -0.73 M0.93 67.72 C13.02 54.09, 25.92 39.84, 59.66 0.44 M-0.22 67.01 C18.26 47.96, 34.49 27.94, 57.79 0.74 M-0.6 72.59 C16.85 53.62, 30.81 34.28, 63.17 1.23 M1.03 73.18 C22.46 48.37, 43.88 22.46, 64.07 -0.66 M-1.3 77.64 C28.07 46.84, 53.09 16.49, 69.24 1.54 M0.15 79 C25.13 51.53, 49.74 24.18, 68.21 -0.64 M-0.6 85.1 C23.71 56.98, 51.19 29.55, 75.01 -1.67 M-0.39 84.7 C27.95 54.93, 53.13 24.45, 75.15 0.42 M-1.01 91.46 C23.76 61.75, 48.06 34.37, 80.61 -1.24 M-0.49 91.43 C15.08 74.37, 31.28 53.88, 79.35 0.14 M1.55 99.16 C29.73 64.41, 55.08 34.91, 83.62 -0.99 M0.53 98.52 C23.1 69.87, 45.45 42.75, 84.48 0.62 M0.94 103.65 C28.97 69.09, 58.61 37.23, 90.84 -0.82 M0.45 104.3 C27.74 72.22, 55.22 39.42, 90.59 1.03 M-0.04 108.59 C27.11 77.41, 58.61 42.96, 96.74 -1.83 M0.6 108.94 C23.6 83.35, 44.86 58.03, 95.82 0.19 M1.35 115.88 C34.37 74.81, 68.66 33.69, 99.3 0.56 M2.19 114.23 C32.87 77.35, 64.6 41.89, 101.61 -0.88 M8.34 111.85 C33.9 83.57, 60.3 52.72, 106.39 -0.56 M8.2 113.39 C37.98 78.4, 66.41 44.34, 106.33 -0.43 M11.87 114.94 C49.01 68.24, 89.62 26.75, 111.67 -0.64 M11.86 114.47 C46.3 77.05, 79.41 38.13, 110.49 0.66 M16.17 114.19 C48.6 78.86, 82 42.15, 116.27 -0.13 M17.59 114.53 C39.33 88.06, 60.03 63.42, 115.81 0.09 M23.4 111.95 C49.34 84.23, 75.45 51.41, 119.96 -1.29 M22.88 114.03 C47.29 86.7, 70.9 56.86, 121.63 -0.95 M27.94 114.75 C64.75 73.25, 100.37 31.36, 128.34 -1.08 M28 113.39 C56.34 82.35, 83.06 50.53, 127.4 0.97 M32.35 112.15 C58.1 84.18, 84.48 57.15, 134.49 0.44 M33.19 113.53 C69.18 70.93, 105.79 28.91, 131.75 0.85 M37.7 111.62 C76.27 69.61, 114.2 29.85, 138.92 -0.98 M38.31 114.43 C65.96 81.98, 93.05 51.07, 137.61 -0.15 M43.45 113.45 C66.81 88.59, 89.59 64.2, 143.88 1.07 M44.07 113.73 C67.54 85.82, 90.33 58.94, 143.95 -0.2 M49.84 113.56 C81.71 80.54, 110.64 42.13, 149.28 -1.46 M49.71 113.24 C80 77.65, 110.63 41.5, 148.94 -0.2 M53.73 114.46 C87.74 78.53, 117.62 40.65, 155.06 -0.21 M54.17 113.55 C94.53 69.66, 132.96 25.06, 153.65 0.76 M59.03 112.03 C82.75 87.65, 103.16 64.46, 157.03 0.51 M59.78 112.57 C85.11 86.28, 108.34 59.66, 159.24 0 M64.52 114.48 C91.67 82.08, 119.73 53.28, 165.29 -1.5 M65.45 114.08 C104.16 68.99, 143.47 24.84, 164.64 -0.24 M70.28 113.16 C104.11 79.74, 135.51 43.09, 168.08 0.67 M70.39 114.32 C109.5 70.43, 147.96 25.7, 169.72 -0.19 M77.5 113.49 C108.26 79.24, 138.95 41.27, 174.14 1.78 M75.25 114.54 C96.42 88.93, 119.81 64.03, 175.02 -0.01 M82.91 113.78 C113.39 72.68, 146.52 34.05, 180.63 -0.56 M81.81 113.56 C103.45 88.8, 123.36 62.97, 180.9 0.77 M86.62 112.16 C113.07 84.94, 138.02 54.41, 187.47 0.89 M86.21 114.33 C112.43 83.24, 139.21 52.71, 185.26 -0.2 M90.53 113.41 C127.23 74.76, 162.91 29.95, 189.23 1.94 M92.61 112.51 C122.62 79.69, 152.54 45.18, 190.68 0.53 M98.17 111.85 C134.84 71.98, 173.88 24.87, 197.48 -2.22 M96.35 113 C131.07 76.3, 165.79 37.09, 196.16 0.69 M101.1 114.24 C141.14 72.11, 177.88 26.68, 200.71 1.94 M103.71 112.54 C135.18 75.64, 168 37.35, 202.27 0.93 M106.75 114.61 C144.97 70.97, 180.08 29.05, 206.66 1.09 M107.03 114.25 C132.47 84.69, 157.44 54.89, 206.86 -0.69 M112.19 113.93 C148.95 75.11, 182.66 33.49, 210.24 1.95 M113.75 114.94 C144.79 77.9, 175.99 40.28, 212.25 -0.06 M119.26 115.17 C157.17 74.35, 189.55 29.71, 215.84 -1.85 M118.92 113.93 C144.97 83.6, 170.48 54.04, 216.87 -0.52 M121.7 114.53 C156.31 73.78, 190.86 38.91, 221.28 1.13 M123.64 113.89 C161.17 71.05, 198.62 26.66, 222.52 -0.28 M130.92 112.95 C163.45 76.79, 195.08 40.72, 228.14 -1.03 M130.08 114.07 C149.97 90.09, 171.17 67.1, 228.01 0.16 M135.83 115.08 C168.12 75.37, 203.62 33.29, 233.62 -0.66 M134.7 112.98 C170.93 73.61, 204.4 31.74, 232.36 0.56 M141.26 112.06 C166.9 84.55, 193.79 53.79, 236.33 1.02 M139.89 112.84 C175.75 72.09, 212.6 29.48, 237.82 0.24 M143.78 112.51 C178.79 72.5, 214.79 34.1, 243.36 1.12 M145.21 114.22 C184.21 69.54, 223.39 23.54, 244.35 0.91 M150.13 113.3 C173.28 90.75, 191.42 64.97, 249.48 2.16 M151.06 112.56 C174.48 85.98, 195.87 60.46, 248.11 -0.51 M157.05 114.48 C194.42 68.77, 233.28 24.48, 254.89 -0.3 M155.85 114.77 C190.77 71.31, 228.13 29.95, 254.45 -0.61 M161.69 114.14 C186.39 84.62, 208.5 57.22, 261.01 1.24 M161.68 113.73 C189.05 79.58, 217.34 47.2, 259.11 1.1 M165.45 115.3 C196.68 76.44, 227.22 44.52, 264.94 1.02 M165.58 112.93 C192.76 82.15, 219.99 53.45, 265.94 0.75 M172.4 112.76 C196.88 85.6, 222.03 56.59, 269.97 0.52 M171.15 112.98 C197.41 83.78, 224.07 54, 268.72 2.18 M177.11 112 C200.97 89.93, 219.85 62.31, 267.32 7.98 M175.76 114.18 C211.59 72.53, 245.15 33.95, 268.23 8.23 M183.05 112.02 C215.94 72.3, 250.99 35.93, 266.52 13.27 M182.24 113.1 C208.16 84.88, 231.42 57.05, 267.95 15.28 M186.47 112.27 C208.67 87.22, 230.15 64.49, 267.32 19.34 M188.06 113.14 C212.96 82.92, 240.39 52.45, 269.25 20.37 M194.74 111.46 C210.46 91.91, 228.65 72.59, 270.17 25.56 M193.03 113.06 C216.76 84.78, 241.61 58.14, 269.2 26.24 M198.27 114.51 C211.5 97.03, 225.76 81.6, 269.88 31.32 M198.5 113.6 C215.04 94.57, 233.01 75, 269.58 32.63 M204.86 115.32 C228.43 83.38, 253.76 54.94, 267.56 38.96 M202.99 113.96 C223.16 91.55, 242.38 68.14, 268.07 38.87 M207.58 111.78 C220.58 99.29, 234.45 86.66, 268.3 45.34 M209.45 114.48 C231.01 88.04, 252.66 63.58, 269.25 45.16 M215.14 112.52 C231.44 96.05, 247.8 77.93, 268.33 48.99 M214.89 113.08 C226.78 98.97, 240.49 83.76, 269.12 51.4 M219.78 111.87 C236.45 94.88, 254.14 74.33, 270.18 57.25 M219.62 113.89 C231.59 98.11, 245.88 83.62, 267.56 58.01 M223.62 112.67 C236.65 102.55, 245.74 88.91, 267.75 62.61 M224.87 113.82 C237.63 97.54, 252.41 81.74, 268.65 63.96 M230.55 113.21 C241.44 99.56, 252.56 89.36, 269.46 69.85 M230.06 113.08 C238.92 104.15, 247.21 93.66, 269.21 69.62 M235.97 114.81 C242.88 102.71, 253.64 91.51, 269.4 75.19 M235.75 114.53 C244.68 102.59, 256.31 90, 269.23 75.56 M241.9 112.95 C248.74 103.67, 259.16 90.8, 269.05 81.88 M240.17 114.45 C247.49 106.43, 253.04 98.62, 268.9 81.85 M244.17 112.42 C250.1 105.64, 258.69 100.67, 269.17 87.08 M245.66 113.42 C252.46 104.76, 260.58 97.28, 267.82 86.65 M250.14 114.91 C257.14 106.33, 263.6 99.26, 267.5 93.51 M251.7 113.57 C254.01 110.03, 257.6 104.8, 268.01 93.49 M254.62 113.93 C259.46 108.89, 263.93 106.56, 269.87 100.48 M256.11 113.2 C260.39 109.67, 263.48 104.5, 268.39 100.05 M261.8 113.58 C262.71 111.87, 266.16 109.36, 268.97 106.66 M261.22 113.35 C263.91 111.06, 266.71 108.79, 268.75 105.59" stroke="#12b886" stroke-width="0.5" fill="none"></path><path d="M-0.02 -0.4 C80.45 0.93, 159.24 -0.92, 264.49 0.45 M267.08 -0.69 C266.27 35.04, 268.64 66.72, 265.3 110.84 M264.96 110.66 C167.15 111.61, 67.51 111.77, 0.99 110.64 M-1.7 111.87 C-0.87 87.14, 1.31 60.95, 1.62 -1.5" stroke="#000000" stroke-width="1.5" fill="none" stroke-dasharray="8 9"></path></g><g stroke-opacity="0.4" fill-opacity="0.4" stroke-linecap="round" transform="translate(1172 348.5) rotate(0 132.5 53)"><path d="M0 0 C0 0, 0 0, 0 0 M0 0 C0 0, 0 0, 0 0 M0.09 6.78 C0.93 4.68, 2.41 3.26, 5.09 0.83 M0.11 6 C1.64 4.5, 3.18 2.54, 5.28 0.52 M1.73 11.48 C4.32 7.78, 6.22 5.6, 10 0.42 M-0.42 12.69 C3.9 6.49, 7.85 2.09, 10.3 0.23 M-0.99 17.55 C3.07 14.48, 10.99 7.6, 15.32 -0.4 M-1.07 18.22 C4.09 13.5, 6.79 11.07, 15.91 -0.08 M0.99 23.33 C6.56 13.39, 14.22 7.96, 22.44 0.29 M0.42 24.84 C7.63 15.44, 14.33 6.17, 21.3 -0.41 M1.18 29.78 C10.38 18.98, 18.96 10.65, 25.51 -0.12 M-0.46 30.18 C9.42 21.13, 16.57 10.39, 27.14 0.47 M-2.18 37.45 C8.74 27.28, 17.9 15.66, 30.71 -1.86 M-0.7 37.12 C11.6 24.98, 20.84 11.71, 32.16 -0.5 M1.41 41.41 C10.04 29.8, 23.5 14.53, 36 0.31 M0.52 42.82 C8.49 32.35, 17.35 20.65, 36.22 -0.08 M-2.12 50.41 C17.54 30.96, 34.17 10.69, 41.49 -0.12 M0.34 49.53 C10.47 35.68, 22.85 23.35, 42.02 -0.15 M-1.71 54.48 C11.91 41.34, 23.67 27.78, 49.3 1.54 M1.22 53.85 C18.61 33.25, 37.58 12.97, 48.29 0.9 M-1.26 59.83 C18.41 43.13, 33.81 23.37, 53.95 0 M0.15 61.37 C16.53 41.66, 33.35 23.42, 53.46 0.65 M-1.93 68.47 C19.98 45.45, 36.97 23.08, 58.21 -1.1 M-0.33 67.89 C10.71 52.84, 23.48 39.08, 58.85 -0.75 M0.99 73.31 C25.72 46.89, 49.4 20.1, 63.54 1.66 M0.35 72.32 C13.96 57.51, 27.84 41.46, 64.38 0.01 M1.28 81.31 C17.25 56.47, 37.94 36.61, 69.87 -1.61 M-0.77 79.44 C23.35 51.66, 46.9 25.35, 69.73 -0.07 M-0.51 85.1 C29.95 53.03, 60.71 15.34, 74.05 0.72 M0.9 85.23 C17.6 65.92, 34.04 45.57, 74.05 0.25 M-1.2 89.85 C26.92 61.72, 52.5 30.56, 77.71 0.72 M0.63 91.44 C20.88 65.13, 42.89 41.53, 79.12 1.06 M-1.23 96.91 C26.2 67.1, 53.71 36.17, 85.59 -2.26 M-0.56 96.86 C22.37 70.56, 46.79 43.85, 85.07 -0.18 M-1.52 102.89 C24.68 73.94, 52.56 42.71, 89.47 1.29 M0.58 104.2 C24.26 73.92, 50.86 45.17, 89.53 -0.07 M1.63 108.61 C40 63.02, 74.95 19.71, 94.54 -2.07 M1.91 108.58 C26.1 81.55, 49.83 54.56, 95.37 -0.69 M7.02 106.37 C35.39 79.54, 59.98 45.51, 99.23 -1.84 M7.72 108.66 C33.2 77.69, 59.62 48.48, 99.84 0.97 M11.76 107.72 C37.35 76.61, 62.96 50.18, 105.64 -0.77 M13.2 107.93 C42.32 72.39, 72.11 39.84, 106.26 -0.49 M18.28 109.48 C51.45 69, 86.14 28.3, 111.37 0.1 M16.84 108.5 C50.28 68.41, 86.59 29.08, 111.24 -0.22 M24.78 109.09 C47.09 78.72, 72.64 50.62, 115.26 1 M22.12 108.17 C58.49 66.78, 93.61 24.2, 115.7 0.09 M29.11 107.59 C57.12 75.29, 82.08 44.29, 120.56 -1.43 M28.76 107.02 C56.14 76.6, 82.74 45.03, 121.31 -0.89 M35.12 108.41 C61.48 75.44, 90.51 41.98, 126.06 1.02 M34.35 107.94 C58.95 79.39, 84.69 49.04, 126.99 0.62 M40.59 108.27 C61.29 82.75, 84.97 54.54, 131.81 -0.3 M39.58 107.19 C75.04 65.3, 112.29 20.74, 131.93 0.86 M43.54 108.06 C76.42 69.21, 108.77 29.69, 139.03 0.03 M43.9 107.01 C73.13 74.46, 101.23 41.81, 136.78 1.08 M50.14 107.74 C70.35 84.88, 91.99 61.17, 144.44 0.32 M48.74 108.12 C72.58 81.67, 96.21 56.39, 143.34 0.1 M53.08 109.14 C92.44 65.4, 128.34 22.91, 148.15 -1.3 M55.16 108.33 C86.06 71.89, 116.75 36.3, 147.74 0.87 M59.47 106.92 C85.16 80.68, 107.98 50.08, 152.06 -0.06 M59.04 107.07 C79.9 85.53, 98.53 61.79, 154.14 -0.96 M65.14 107.39 C93.97 77.31, 121.91 43.81, 159.7 -1.61 M64.82 107.98 C93.14 73.21, 122.93 38.54, 157.89 -0.46 M70.62 107.42 C96.09 80.66, 117.78 50.55, 162.63 0.78 M70.61 107.46 C99 75.73, 127.08 42.3, 165.25 -0.92 M75.4 109.28 C104.73 78.23, 130.62 44.67, 168.28 1.15 M75.94 107.22 C108.88 71.29, 140.33 36.5, 168.56 0.78 M81.92 107.54 C108.88 75.01, 137.58 40.25, 174.38 -0.29 M80.92 106.88 C112.08 73.12, 141.6 38.16, 175.94 0.72 M85.86 107.94 C115.83 74.56, 144.24 37.38, 180.79 1.71 M85.92 106.46 C121.39 66.46, 158.26 25.67, 180.45 0.47 M92.05 106.26 C126.82 67.56, 163.55 26.37, 183.89 0.31 M92.79 107.05 C121.71 75.36, 149.42 42.1, 185.83 -0.33 M96.84 107.2 C122.56 77.98, 148.63 48.11, 192.45 -0.51 M98.5 107.26 C131.57 65.96, 165.92 26.48, 191.61 0.61 M103.97 107.25 C124.53 84.96, 145.7 58.78, 198.02 0.86 M102.38 107.87 C127.57 78.21, 153.44 48.35, 196.88 -1.24 M106.95 105.57 C145.38 64.67, 179.94 21.74, 202.79 -1.4 M107.77 106.34 C138.67 72.4, 168.68 37.32, 201.42 -0.62 M112.95 106.87 C137.55 79.08, 164.46 50.11, 205.97 -1.71 M113.21 107.39 C143.59 74.09, 171.29 39.05, 207.4 0 M116.49 109.02 C140.49 83.13, 158.22 60.59, 211.66 -0.17 M117.5 108.32 C154.39 66.6, 188.36 27.15, 212.59 -0.9 M122.61 106.17 C157.74 69.87, 193.49 28.13, 219.24 0.26 M124.13 107.8 C149.55 78.9, 176.14 48.72, 218.03 0.55 M130.02 107.92 C150.7 80.28, 174.77 55.79, 223.22 0.68 M127.77 108.73 C167.34 64.7, 203.45 22.57, 223.21 0.27 M132.83 106.88 C156.01 86.71, 171.98 65.91, 227.64 1.08 M135.32 107.48 C160.09 79.68, 183.27 52.81, 227.77 -1.29 M140.43 109.6 C169.57 74.41, 195.99 42.64, 233.93 -0.7 M139.05 108.52 C171.21 69.58, 203.99 32.69, 232.68 -0.49 M143.85 107.41 C172.87 74.59, 196.82 44.29, 238.64 -1.46 M144.33 106.93 C178.57 69.79, 212.89 30.61, 237.29 0.72 M151.62 107.33 C181.61 75.1, 213.65 39.58, 244.58 -1.44 M150.79 107.02 C179.51 73.24, 209.47 38.58, 243.77 -0.36 M156.19 106.89 C192.77 67.32, 227.52 28.97, 248 -1.19 M156.04 106.83 C185.64 73.41, 216.17 39.87, 249.59 -0.32 M161.76 109.06 C183.51 79.85, 207.49 54.02, 256.27 -2 M160.81 108.74 C189.41 74.8, 218.12 42.5, 254.57 -0.4 M166.7 109.1 C189.97 77.6, 214.27 51.19, 259.8 1.04 M166.68 108.01 C189.53 80.41, 213.13 53.08, 260.03 0.13 M171.37 109.43 C197.62 79.83, 220.31 48.98, 266.39 1.86 M171.24 107.34 C194.36 82.52, 217.55 55.93, 264.52 0.5 M176.53 106.52 C207.39 70.54, 239.39 38.58, 263.86 4.36 M177.81 107.44 C204.86 75.25, 233.11 42.34, 265.73 7.06 M183.24 109.77 C213.28 72.01, 243.09 36.36, 266.18 11.14 M182.58 107.62 C209.73 73.01, 240.2 39.92, 265.93 11.69 M187.17 108.34 C212.39 80.64, 234.75 53.34, 265.56 16.52 M188.35 108.28 C208.64 82.19, 231.25 57.22, 265.4 18.54 M194.51 106.09 C211.7 86.36, 226.1 67.88, 263.5 24.11 M191.67 107.56 C219.78 75.33, 247.29 43.92, 264.75 25.26 M196.38 108.4 C214.13 89.41, 227.01 73.24, 265.84 29.93 M198.56 107.82 C221.13 81.1, 242.81 56.31, 265.35 29.81 M204.62 109.1 C222.71 86.15, 242.56 65.73, 266.01 37.57 M203.68 108.28 C216.09 92.97, 229.74 77.18, 265.79 37.29 M210.26 109.26 C220.59 93.65, 232.48 81.01, 266.69 41.75 M208.03 107.51 C223.37 89.95, 238.12 74.64, 264.97 43.25 M215.32 108.17 C232.63 86.71, 247.23 67.13, 263.72 47.26 M214.14 108.07 C225.09 94.8, 235.59 81.32, 265.21 48.26 M219.22 106.14 C229.65 95.41, 242.38 81.53, 263.78 56.55 M219.72 106.97 C231.8 91.87, 245.29 77.89, 265.34 55.2 M222.67 107.4 C233.87 95.48, 246.38 81.56, 263.59 60.84 M224.91 108.35 C236.94 94.2, 248.09 80.33, 265.16 60.07 M229.99 106.97 C242.09 93.88, 252.25 82.95, 265.04 67.33 M229.91 107.96 C238.47 98.33, 245.04 88.46, 263.87 66.86 M237.04 109.55 C241.59 95.99, 253.38 88.2, 264.9 74.68 M234.21 107.74 C242.83 98.15, 250.33 90.71, 265.16 72.77 M240.93 109.11 C246.53 101.33, 251.46 93.04, 266.75 80.05 M239.58 107.15 C248.19 97.11, 256.8 88.44, 264.33 78.85 M247.13 108.06 C252.67 98.47, 257.95 92.55, 266.6 86.58 M246.59 107.97 C249.13 102.54, 253.52 98.87, 265.39 85.3 M248.7 108.35 C253.79 102.99, 258.54 99.66, 264.16 90.6 M251.02 107.11 C255.66 102.88, 260.04 97.6, 265.49 92.22 M256.07 107.24 C258.73 105.33, 259.04 102.85, 265.54 97.09 M256.72 107.81 C258.82 105.46, 260.74 103.06, 265.19 98.25 M261.01 107.76 C263.04 106.62, 263.93 104.88, 265.72 102.83 M261.48 108.18 C262.66 106.25, 263.83 104.76, 265.01 103.31" stroke="#fab005" stroke-width="0.5" fill="none"></path><path d="M0.17 0.13 C70.08 -2.19, 139.27 -0.38, 265.36 -0.37 M263.69 -0.53 C264.06 22.42, 264.79 46.94, 264.66 104.01 M265.32 106.14 C210.15 106.09, 157.99 106.43, -0.76 107.58 M1.01 105.98 C-0.18 85.31, -2.4 61.21, -0.47 0.48" stroke="#000000" stroke-width="1.5" fill="none" stroke-dasharray="8 9"></path></g><g transform="translate(1023 10) rotate(0 38 12.5)"><text x="0" y="18" font-family="Virgil, Segoe UI Emoji" font-size="20px" fill="#000000" text-anchor="start" style="white-space: pre;" direction="ltr">Answers</text></g><g transform="translate(945.5 256.5) rotate(0 22.5 34.5)"><text x="22.5" y="16" font-family="Virgil, Segoe UI Emoji" font-size="17.86666666666665px" fill="#000000" text-anchor="middle" style="white-space: pre;" direction="ltr"> </text><text x="22.5" y="39" font-family="Virgil, Segoe UI Emoji" font-size="17.86666666666665px" fill="#000000" text-anchor="middle" style="white-space: pre;" direction="ltr">filter</text><text x="22.5" y="62" font-family="Virgil, Segoe UI Emoji" font-size="17.86666666666665px" fill="#000000" text-anchor="middle" style="white-space: pre;" direction="ltr"></text></g><g transform="translate(963.5 306.5) rotate(0 22.5 34.5)"><text x="22.5" y="16" font-family="Virgil, Segoe UI Emoji" font-size="17.86666666666665px" fill="#000000" text-anchor="middle" style="white-space: pre;" direction="ltr"> </text><text x="22.5" y="39" font-family="Virgil, Segoe UI Emoji" font-size="17.86666666666665px" fill="#000000" text-anchor="middle" style="white-space: pre;" direction="ltr">filter</text><text x="22.5" y="62" font-family="Virgil, Segoe UI Emoji" font-size="17.86666666666665px" fill="#000000" text-anchor="middle" style="white-space: pre;" direction="ltr"></text></g><g transform="translate(1181 233) rotate(0 128 50)"><text x="0" y="14" font-family="Virgil, Segoe UI Emoji" font-size="16px" fill="#000000" text-anchor="start" style="white-space: pre;" direction="ltr">[{</text><text x="0" y="34" font-family="Virgil, Segoe UI Emoji" font-size="16px" fill="#000000" text-anchor="start" style="white-space: pre;" direction="ltr">   "answer": "tool", </text><text x="0" y="54" font-family="Virgil, Segoe UI Emoji" font-size="16px" fill="#000000" text-anchor="start" style="white-space: pre;" direction="ltr">   "article": "Cherche is a tool", </text><text x="0" y="74" font-family="Virgil, Segoe UI Emoji" font-size="16px" fill="#000000" text-anchor="start" style="white-space: pre;" direction="ltr">   "title": "Cherche"</text><text x="0" y="94" font-family="Virgil, Segoe UI Emoji" font-size="16px" fill="#000000" text-anchor="start" style="white-space: pre;" direction="ltr">}]</text></g><g stroke-opacity="0.8" fill-opacity="0.8" transform="translate(1204 392) rotate(0 70.5 10)"><text x="0" y="14" font-family="Virgil, Segoe UI Emoji" font-size="16px" fill="#000000" text-anchor="start" style="white-space: pre;" direction="ltr">Cherche is a tool.</text></g></svg>